<?xml version="1.0" encoding="UTF-8" standalone="no"?>
<svg
   width="50"
   height="53"
   viewBox="0 0 50 53"
   fill="none"
   version="1.1"
   id="svg3"
   sodipodi:docname="favicon.svg"
   inkscape:version="1.4.2 (f4327f4, 2025-05-13)"
   xmlns:inkscape="http://www.inkscape.org/namespaces/inkscape"
   xmlns:sodipodi="http://sodipodi.sourceforge.net/DTD/sodipodi-0.dtd"
   xmlns="http://www.w3.org/2000/svg"
   xmlns:svg="http://www.w3.org/2000/svg">
  <defs
     id="defs3" />
  <sodipodi:namedview
     id="namedview3"
     pagecolor="#505050"
     bordercolor="#eeeeee"
     borderopacity="1"
     inkscape:showpageshadow="0"
     inkscape:pageopacity="0"
     inkscape:pagecheckerboard="0"
     inkscape:deskcolor="#505050"
     inkscape:zoom="7.6132076"
     inkscape:cx="21.410161"
     inkscape:cy="33.297398"
     inkscape:window-width="1920"
     inkscape:window-height="1009"
     inkscape:window-x="-8"
     inkscape:window-y="-8"
     inkscape:window-maximized="1"
     inkscape:current-layer="svg3" />
  <circle
     style="fill:#ffffff;stroke-width:0.823941;fill-opacity:1"
     id="path4"
     cx="25"
     cy="26.5"
     r="25"
     inkscape:label="BG" />
  <g
     id="g4"
     transform="matrix(0.53239158,0,0,0.53239158,11.690211,12.212295)">
    <path
       d="m 37.4853,6.22351 c -0.3175,-0.01033 -0.6392,0.01354 -0.9613,0.06118 -0.1776,0.03214 -2.0218,0.41006 -2.7541,2.35716 -0.7183,1.90955 0.3055,3.64845 1.3296,4.37155 4.2738,3.018 7.3952,8.1876 7.3984,14.2755 0,10.0132 -8.2221,17.4371 -17.4659,17.442 -2.6911,-0.0355 -5.0303,-0.3752 -7.5728,-1.6693 l -1.7153,-0.9194 c 0.805,0.5685 1.2898,1.8112 1.0828,3.2522 -0.1219,0.8483 -0.5997,1.748 -1.6459,2.5814 -0.8319,0.6627 -1.9276,1.0457 -3.098,0.7079 0.5738,0.3701 1.3114,0.7499 1.9661,1.0652 3.1044,1.495 6.3241,2.4841 10.9831,2.4841 C 41.0655,52.1268 50,39.1065 50,27.2889 49.9438,18.7996 46.1648,11.1594 39.0201,6.60784 38.532,6.3528 38.0145,6.2407 37.4853,6.22351 Z"
       fill="#f0531c"
       id="path1" />
    <path
       fill-rule="evenodd"
       clip-rule="evenodd"
       d="m 11.0266,48.0576 c -4e-4,10e-5 -9e-4,2e-4 -0.0014,2e-4 -4e-4,0 -7e-4,-1e-4 -0.0011,-3e-4 -0.0021,-0.0013 -0.004,-0.003 -0.0061,-0.0043 -0.0118,-0.0058 -0.0262,-0.0117 -0.0373,-0.0188 -6e-4,-4e-4 -9e-4,-10e-4 -9e-4,-0.0017 V 48.0266 C 10.7568,47.8833 10.5382,47.728 10.3247,47.5713 9.86682,47.2353 9.42255,46.8787 8.99152,46.5091 7.61412,45.3279 6.34911,43.9921 5.2387,42.5576 3.72995,40.6085 2.49677,38.4582 1.61171,36.1563 0.51919,33.3147 -0.00771688,30.332 8.53733e-5,27.2888 0.021729,18.8499 3.79611,11.1833 10.981,6.60603 11.7626,6.19767 12.6203,6.15569 13.4785,6.2826 c 0.1344,0.02433 0.2735,0.06474 0.4025,0.10814 0.2666,0.08963 0.5255,0.20883 0.7672,0.35259 0.7418,0.44124 1.2817,1.08872 1.586,1.89772 0.3242,0.86197 0.3192,1.77365 -0.0115,2.63215 -0.258,0.6699 -0.729,1.3253 -1.3189,1.7418 -1.4902,1.0523 -2.808,2.3335 -3.9022,3.7933 -2.26622,3.0236 -3.49431,6.6986 -3.49532,10.4805 -0.00105,3.9707 1.34563,7.8557 3.82042,10.9626 1.0233,1.2846 2.2355,2.4269 3.5769,3.3741 0.3697,0.261 0.6937,0.6385 0.9362,1.0181 0.2951,0.4621 0.5082,0.9858 0.5999,1.5273 0.102,0.6019 0.0496,1.2088 -0.1697,1.7799 -0.2746,0.7153 -0.7785,1.3021 -1.3725,1.7753 -0.5115,0.4074 -1.1638,0.6314 -1.8105,0.6922 -0.7023,0.0661 -1.4235,-0.0553 -2.0604,-0.3607 z M 13.3479,7.06951 C 12.6784,6.97208 11.9927,6.98787 11.3788,7.29824 4.44205,11.7324 0.818516,19.1386 0.797614,27.2909 c -0.007547,2.9413 0.502316,5.8322 1.558496,8.5792 0.85672,2.2283 2.05271,4.3126 3.51326,6.1994 1.07936,1.3944 2.30267,2.6863 3.64133,3.8343 0.41608,0.3568 0.8439,0.7003 1.2858,1.0246 0.2011,0.1476 0.4047,0.2925 0.6145,0.4274 0.0024,0.0015 0.0047,0.003 0.007,0.0045 0.495,0.2268 1.0531,0.3151 1.5943,0.2641 0.4909,-0.0462 0.9993,-0.2121 1.3884,-0.522 0.4799,-0.3823 0.9025,-0.8582 1.1249,-1.4374 0.1677,-0.4367 0.2059,-0.9006 0.1279,-1.3609 C 15.5796,43.868 15.4054,43.4449 15.1678,43.0729 14.9814,42.7811 14.728,42.4778 14.4437,42.277 13.0399,41.2857 11.7737,40.0925 10.703,38.7483 8.11578,35.5003 6.70776,31.4398 6.70887,27.2886 6.70992,23.336 7.99322,19.4925 10.3636,16.3301 c 1.1436,-1.5258 2.5227,-2.8666 4.0803,-3.9665 0.4603,-0.3251 0.8334,-0.8544 1.0347,-1.377 C 15.739,10.3104 15.743,9.60032 15.4878,8.92185 15.2476,8.28307 14.8274,7.77779 14.2406,7.42878 14.047,7.31366 13.8404,7.21845 13.627,7.14668 13.5366,7.11633 13.4419,7.08741 13.3479,7.06951 Z"
       fill="#f0531c"
       id="path2" />
    <path
       d="m 24.9931,0 c -1.999,3.19113e-5 -3.6194,1.62047 -3.6194,3.61941 5e-4,0.00813 0.0011,0.01629 0.0018,0.02443 H 21.3639 V 13.6886 h 0.0146 c 0.036,1.9712 1.643,3.551 3.6146,3.5534 1.9716,-0.0022 3.5788,-1.5821 3.6148,-3.5534 h 0.0149 V 3.64384 H 28.6109 C 28.6116,3.6357 28.6122,3.62754 28.6127,3.61941 28.6127,1.62044 26.9922,-2.3933e-5 24.9932,0 h -2e-4 z"
       fill="#28a7e0"
       id="path3" />
  </g>
  <circle
     style="display:none;fill:#212121;fill-opacity:1;stroke-width:0.823941"
     id="circle1"
     cx="25"
     cy="26.5"
     r="25"
     inkscape:label="BG" />
</svg>
