<svg width="939" height="739" viewBox="0 0 939 739" fill="none" xmlns="http://www.w3.org/2000/svg">
<g opacity="0.12">
<path d="M620.353 6.25488C642.808 1.57194 665.088 4.76048 687.012 10.0469C697.968 12.6887 708.942 15.8837 719.801 18.9102C730.694 21.9464 741.509 24.824 752.314 26.8955C785.084 33.1735 818.593 32.039 852.525 30.6035C886.343 29.1729 920.608 27.4411 954.319 32.7578C1002.01 40.2761 1046.43 61.6127 1086.9 87.291C1123.91 110.772 1159.5 139.24 1182.41 177.239C1200.74 207.64 1209.64 241.648 1216.52 276.188C1223.42 310.887 1228.25 345.888 1238.37 379.148C1259.14 447.375 1302.06 507.891 1340.99 569.854C1379.78 631.607 1414.5 694.703 1417.59 767.345C1422.77 889.064 1335.12 995.047 1237.79 1066.44L1235.48 1068.12C1186.37 1103.81 1133.34 1134.45 1082 1166.54C1030.57 1198.69 980.705 1232.36 937.462 1274.31C914.14 1296.94 893.019 1321.73 871.609 1346.5C850.235 1371.23 828.587 1395.92 804.35 1418.1C720.189 1495.12 605.906 1538.22 491.892 1535.93C377.877 1533.64 265.418 1486 184.404 1405.66C143.599 1365.19 109.193 1313.41 105.559 1255.31C102.233 1202.15 124.361 1153.82 148.443 1106.27C172.652 1058.47 198.789 1011.51 204.919 960.188C210.5 913.434 198.851 865.957 181.173 821.817V821.816C150.742 745.845 102.378 677.135 41.1416 622.89L35.5049 617.9C29.8063 612.822 24.0174 607.455 19.0205 601.619C12.5403 594.051 7.22418 585.512 5.0498 575.467L4.84961 574.49C1.78793 558.732 7.34653 542.883 13.4512 529.086V529.085C56.0435 432.893 143.795 364.479 235.231 314.098L237.017 313.121C274.694 292.666 323.694 275.423 370.004 255.706C417.324 235.559 462.004 212.781 490.857 181.177C503.279 167.571 511.588 151.311 518.529 134.057C522 125.429 525.11 116.604 528.23 107.752C531.344 98.9218 534.469 90.0625 537.94 81.4775C544.882 64.3126 553.299 48.0095 566.121 34.7383C578.994 21.4145 596.163 11.2943 620.353 6.25488Z" stroke="white" stroke-width="6.03759" stroke-miterlimit="10"/>
<path d="M621.065 17.1292C643.107 12.4695 664.969 15.5617 686.479 20.6946C697.227 23.2594 707.999 26.3631 718.653 29.2913C729.344 32.2295 739.96 35.0028 750.569 36.9709L752.081 37.2463C783.844 42.9118 816.339 41.6411 849.263 40.1301C882.594 38.6005 916.384 36.8227 949.629 42.0579C995.946 49.3462 1039.14 69.8794 1078.58 94.7336L1080.45 95.9211L1083.87 98.1116C1119.14 120.898 1152.76 148.427 1174.67 184.738C1192.82 214.781 1201.72 248.362 1208.62 282.467C1215.55 316.731 1220.43 351.288 1230.47 384.153C1240.16 415.851 1254.66 445.94 1271.28 475.342C1284.78 499.211 1299.64 522.559 1314.46 545.919C1329.27 569.255 1344.03 592.603 1357.24 616.364C1383.24 663.143 1403.34 711.755 1406.04 765.641L1406.15 768.211V768.213C1406.53 777.869 1406.32 787.424 1405.57 796.877C1396.89 906.033 1315.48 1000.66 1225.97 1065.55C1177.59 1100.66 1125.36 1130.77 1074.77 1162.27C1024.1 1193.82 974.964 1226.84 932.315 1267.95C909.318 1290.12 888.477 1314.41 867.353 1338.67C846.263 1362.88 824.903 1387.06 801.01 1408.77L801.011 1408.77C718.838 1483.63 607.596 1525.72 496.397 1524.07L493.771 1524.02C381.691 1521.64 271.161 1474.77 191.489 1395.8V1395.8C151.241 1355.92 117.286 1304.89 113.578 1247.61C110.216 1195.59 131.51 1148.21 154.924 1101.63C178.806 1054.1 204.833 1007.49 211.02 956.553C216.607 910.494 205.346 863.729 188.188 820.246L186.791 816.743C157.18 743.3 110.648 676.889 51.8574 624.218C44.6345 617.781 36.7393 610.944 30.2256 603.289C23.6846 595.603 18.3589 586.898 16.3848 576.597C13.4118 561.091 18.8988 545.508 24.918 531.947C66.8817 437.401 153.132 370.066 242.954 320.406L244.415 319.604C275.223 302.772 313.637 288.185 351.823 272.573C390.751 256.659 429.532 239.648 460.647 217.978C473.202 209.233 484.465 199.755 493.964 189.323C506.153 175.936 514.31 159.945 521.125 142.976C524.533 134.491 527.586 125.812 530.65 117.105C533.707 108.42 536.775 99.7044 540.184 91.2581C546.998 74.3702 555.259 58.3216 567.843 45.2454C580.478 32.1163 597.328 22.1298 621.065 17.1282V17.1292Z" stroke="white" stroke-width="6.03759" stroke-miterlimit="10"/>
<path d="M621.779 28.0026C643.408 23.3624 664.855 26.3572 685.954 31.3365C696.496 33.8244 707.066 36.8379 717.517 39.6686C728.005 42.5096 738.42 45.1799 748.832 47.0465C780.549 52.7335 813.048 51.2932 846.012 49.6578C878.859 48.0282 912.18 46.2039 944.97 51.3649C991.366 58.6619 1034.62 79.4714 1074.02 104.565C1110.03 127.49 1144.62 155.278 1166.96 192.243L1167.79 193.636C1185.19 222.961 1193.92 255.605 1200.74 288.751C1207.69 322.58 1212.62 356.694 1222.59 389.163L1223.5 392.093C1233.1 422.333 1247.02 451.146 1262.86 479.328L1264.11 481.54C1277.04 504.387 1291.18 526.771 1305.25 549.171C1319.77 572.268 1334.22 595.378 1347.13 618.893C1372.95 665.925 1392.74 714.809 1394.72 769.07V769.071C1395.07 778.605 1394.84 788.052 1394.08 797.391C1385.26 905.266 1305.03 998.939 1216.47 1062.97L1216.47 1062.97C1168.82 1097.51 1117.39 1127.09 1067.56 1158C1017.66 1188.96 969.246 1221.32 927.192 1261.58C904.52 1283.3 883.958 1307.08 863.118 1330.83C842.314 1354.54 821.244 1378.2 797.694 1399.45C716.216 1473.32 605.802 1514.55 495.673 1512.1C385.537 1509.66 276.929 1463.55 198.606 1385.95L196.75 1384.1C157.867 1345.08 125.343 1295.49 121.621 1239.93C118.185 1188.66 138.984 1141.93 161.936 1095.97L164.136 1091.58C186.922 1046.2 211.129 1001.55 217.129 952.926L217.379 950.799C222.381 906.117 211.583 860.845 195.211 818.68V818.679C167.003 746.131 122.34 680.251 65.2959 628.026L62.5703 625.549C55.5387 619.208 47.8173 612.478 41.4492 604.957C35.0525 597.401 29.8383 588.846 27.9229 578.712L27.7939 577.997C25.2079 562.986 30.5464 547.933 36.3799 534.816L37.3574 532.643C78.3839 442.313 160.515 377.344 246.554 329.023L250.687 326.715C281.193 309.775 319.513 295.158 357.589 279.506C395.801 263.799 433.856 247.019 464.39 225.673H464.391C476.709 217.064 487.759 207.737 497.08 197.468C509.035 184.301 517.039 168.581 523.727 151.896C527.071 143.553 530.067 135.019 533.074 126.457C536.074 117.917 539.085 109.346 542.429 101.038C549.115 84.4268 557.221 68.634 569.567 55.7526C581.964 42.8183 598.494 32.9655 621.779 28.0016V28.0026Z" stroke="white" stroke-width="6.03759" stroke-miterlimit="10"/>
<path d="M622.487 38.8751C643.701 34.2529 664.734 37.1515 685.422 41.9777C695.756 44.3885 706.125 47.3128 716.371 50.046C726.657 52.7899 736.872 55.357 747.087 57.1222C778.278 62.5121 810.274 60.9185 842.753 59.1827C875.114 57.4532 907.961 55.5815 940.28 60.6573C986.029 67.8401 1028.7 88.386 1067.58 113.188C1103.06 135.827 1137.16 163.279 1159.22 199.726L1160.05 201.104C1177.27 230.074 1186 262.294 1192.84 295.012C1199.82 328.406 1204.79 362.076 1214.69 394.152C1224.23 425.088 1238.34 454.512 1254.42 483.299C1267.47 506.664 1281.79 529.529 1296.03 552.413C1310.25 575.273 1324.38 598.146 1337 621.415C1362.23 667.956 1381.49 716.312 1383.28 769.921L1383.33 771.688C1383.56 780.516 1383.29 789.259 1382.57 797.904H1382.57C1373.6 904.493 1294.56 997.216 1206.95 1060.39C1160.04 1094.35 1109.4 1123.4 1060.33 1153.72C1011.19 1184.09 963.501 1215.79 922.047 1255.21C899.699 1276.47 879.419 1299.74 858.864 1322.98C838.346 1346.18 817.567 1369.33 794.356 1390.12L794.357 1390.12C714.227 1462.41 605.74 1502.71 497.554 1500.18C389.36 1497.65 282.68 1452.32 205.7 1376.09C166.543 1337.37 133.497 1287.83 129.643 1232.23C126.141 1181.72 146.435 1135.63 168.925 1090.31C191.86 1044.03 217.017 998.72 223.224 949.284L223.475 947.19C228.495 903.184 218.081 858.618 202.22 817.101V817.1C174.46 744.546 130.181 678.675 73.2783 626.876C66.4205 620.634 58.8744 614.011 52.6543 606.618C46.5999 599.422 41.6292 591.305 39.6367 581.747L39.4531 580.818C36.6574 565.823 42.0012 550.767 47.8418 537.677C88.5555 446.41 171.802 381.234 258.396 333.026C288.361 316.317 325.975 301.883 363.336 286.439C400.833 270.938 438.164 254.389 468.117 233.369C480.201 224.889 491.046 215.705 500.182 205.608L501.27 204.386C512.394 191.692 519.961 176.697 526.318 160.809C529.6 152.608 532.54 144.22 535.491 135.803C538.434 127.408 541.389 118.981 544.67 110.812C551.23 94.4783 559.18 78.9404 571.289 66.255C583.447 53.5176 599.658 43.8009 622.487 38.8761V38.8751Z" stroke="white" stroke-width="6.03759" stroke-miterlimit="10"/>
<path d="M623.216 49.7549C644.011 45.1506 664.623 47.9499 684.896 52.6211C695.022 54.9544 705.19 57.7872 715.232 60.4229C725.316 63.0693 735.331 65.5335 745.35 67.1973L746.788 67.4316C777.002 72.2396 808.01 70.5204 839.503 68.7119C871.378 66.8815 903.75 64.9595 935.607 69.9502C980.715 77.0187 1022.81 97.3012 1061.14 121.811H1061.14C1096.13 144.165 1129.74 171.28 1151.51 207.21L1152.33 208.57C1169.37 237.183 1178.09 268.983 1184.96 301.273C1191.96 334.233 1196.99 367.461 1206.8 399.142C1216.27 429.703 1230.19 458.787 1246 487.27C1258.83 510.381 1272.87 533.006 1286.82 555.651C1300.74 578.272 1314.57 600.907 1326.89 623.932C1351.52 669.982 1370.26 717.81 1371.85 770.768L1371.89 772.511C1372.09 781.224 1371.8 789.86 1371.07 798.404V798.405C1361.96 903.712 1284.11 995.477 1197.45 1057.8L1197.45 1057.8C1151.27 1091.18 1101.43 1119.71 1053.12 1149.43C1005.49 1178.75 959.244 1209.28 918.837 1247.02L916.918 1248.82C894.889 1269.62 874.862 1292.37 854.58 1315.08C834.332 1337.76 813.843 1360.4 791.029 1380.78C712.685 1450.74 607.36 1490.24 501.94 1488.3L499.45 1488.25C393.2 1485.63 288.448 1441.08 212.811 1366.21C174.209 1328.08 141.622 1279.29 137.687 1224.52C134.111 1174.77 153.91 1129.33 175.938 1084.63C198.402 1038.99 223.121 994.328 229.342 945.642C234.948 901.652 224.838 857.041 209.245 815.521C182.365 744.099 139.453 679.18 83.9941 628.194C77.3144 622.055 69.9428 615.544 63.8701 608.281C57.7669 600.982 52.7897 592.719 50.9922 582.925L50.8711 582.234C48.4496 567.735 53.6392 553.2 59.3047 540.546C98.7705 452.312 178.598 388.831 262.155 341.58L266.137 339.342C295.558 322.866 332.464 308.616 369.109 293.379C405.89 278.086 442.496 261.768 471.868 241.073L471.869 241.072C483.724 232.728 494.348 223.695 503.306 213.762V213.761C514.794 201.032 522.493 185.851 528.929 169.734C532.147 161.676 535.031 153.433 537.925 145.161C540.811 136.911 543.71 128.627 546.927 120.596C553.359 104.539 561.154 89.2566 573.024 76.7666C584.945 64.2232 600.837 54.6398 623.216 49.7549Z" stroke="white" stroke-width="6.03759" stroke-miterlimit="10"/>
<path d="M623.929 60.6283C644.311 56.0433 664.51 58.7476 684.369 63.267C704.498 67.8476 723.753 74.1211 743.603 77.2797L745.017 77.4994C774.718 82.016 805.229 80.1451 836.244 78.2377C867.633 76.3072 899.531 74.3407 930.926 79.2572H930.925C975.385 86.2114 1016.9 106.238 1054.7 130.454H1054.7C1089.18 152.524 1122.29 179.302 1143.78 214.715L1144.59 216.058C1161.45 244.316 1170.18 275.693 1177.07 307.556C1184.09 340.08 1189.17 372.863 1198.91 404.152L1199.8 406.977C1209.17 436.129 1222.52 463.965 1237.57 491.256L1239.95 495.536C1251.9 516.914 1264.8 537.901 1277.6 558.909C1291.23 581.292 1304.74 603.69 1316.77 626.469C1340.81 672.03 1359.01 719.329 1360.41 771.635C1360.64 780.256 1360.4 788.795 1359.71 797.245L1359.56 798.934C1350.31 902.95 1273.66 993.752 1187.94 1055.23L1187.95 1055.23C1142.5 1088.03 1093.46 1116.03 1045.91 1145.17C998.277 1174.35 952.042 1204.74 911.778 1242.46C890.074 1262.81 870.322 1285.04 850.322 1307.24C830.356 1329.41 810.157 1351.53 787.697 1371.46H787.696C710.035 1440.34 605.646 1479.02 501.338 1476.33H501.337C397.03 1473.63 294.207 1429.85 219.912 1356.35L218.133 1354.59C180.855 1317.3 149.663 1269.91 145.716 1216.83C142.074 1167.84 161.37 1123.04 182.936 1078.98C204.93 1033.95 229.202 989.945 235.437 942.007C241.05 898.704 231.32 854.81 216.253 813.947V813.946C190.674 744.76 150.016 681.692 97.2246 631.881L94.7012 629.52C88.1996 623.485 81.0004 617.082 75.0742 609.949C69.1166 602.777 64.2573 594.658 62.5225 585.031L62.4053 584.353C60.0663 570.108 65.193 555.827 70.7666 543.407C110.237 455.412 190.473 392.409 273.86 345.644C302.738 329.4 338.939 315.334 374.87 300.304C410.936 285.218 446.818 269.131 475.609 248.762L475.611 248.761C487.223 240.554 497.633 231.663 506.414 221.901V221.9C517.669 209.392 525.214 194.482 531.523 178.651C534.678 170.735 537.505 162.638 540.343 154.511C543.173 146.406 546.014 138.268 549.168 130.375C555.473 114.596 563.114 99.5688 574.746 87.2738C586.429 74.9253 602.003 65.4746 623.929 60.6273V60.6283Z" stroke="white" stroke-width="6.03759" stroke-miterlimit="10"/>
<path d="M624.632 71.5095C644.612 66.9852 664.397 69.588 683.846 73.9412C703.551 78.3516 722.413 84.3982 741.859 87.3552L743.248 87.5613C772.436 91.7936 802.452 89.773 832.993 87.7673C863.899 85.7378 895.33 83.7257 926.276 88.5642L928.327 88.8943C971.367 96.0229 1011.6 115.541 1048.29 139.093H1048.29C1082.26 160.884 1114.87 187.318 1136.08 222.213C1153.28 250.456 1162.17 281.897 1169.19 313.832C1176.25 345.922 1181.37 378.262 1191.03 409.155C1200.36 438.962 1213.89 467.374 1229.16 495.242H1229.16C1241.55 517.852 1255.04 539.995 1268.4 562.165C1281.74 584.31 1294.94 606.47 1306.66 629.004C1329.75 673.369 1347.23 719.38 1348.92 770.078L1348.99 772.496C1349.2 781.57 1348.88 790.556 1348.07 799.447V799.448C1338.68 902.175 1263.21 992.026 1178.45 1052.65L1178.45 1052.65C1133.74 1084.88 1085.49 1112.35 1038.7 1140.9C991.826 1169.49 946.317 1199.22 906.651 1236.09L906.65 1236.09C885.27 1255.99 865.792 1277.7 846.074 1299.39C826.39 1321.05 806.48 1342.66 784.375 1362.14C708.007 1429.4 605.595 1467.19 503.229 1464.42C400.855 1461.65 299.959 1418.63 227.007 1346.5V1346.5C189.798 1309.82 158.326 1262.98 153.849 1210.39L153.748 1209.14C150.033 1160.91 168.839 1116.75 189.936 1073.32C211.46 1028.93 235.301 985.568 241.543 938.379C247.162 895.763 237.821 852.588 223.273 812.383L222.086 809.145C196.91 741.269 157.173 679.439 105.412 630.852C99.089 624.918 92.0638 618.623 86.2852 611.619C80.4738 604.575 75.7321 596.602 74.0566 587.142L73.9443 586.475C71.6957 572.481 76.7426 558.466 82.2324 546.276L83.1494 544.257C122.297 458.961 200.447 397.637 281.582 351.961C309.917 335.949 345.41 322.067 380.624 307.245C415.974 292.366 451.13 276.509 479.341 256.466L479.343 256.465C490.72 248.393 500.922 239.652 509.518 230.055L509.52 230.053C520.542 217.762 527.937 203.132 534.124 187.6C537.217 179.834 539.991 171.892 542.773 163.918C545.549 155.965 548.335 147.979 551.426 140.231C557.606 124.742 565.092 109.977 576.483 97.8699C587.924 85.7092 603.171 76.3685 624.632 71.5095Z" stroke="white" stroke-width="6.03759" stroke-miterlimit="10"/>
<path d="M625.343 82.3842C644.91 77.8858 664.28 80.3904 683.317 84.5883C702.602 88.8408 721.072 94.6791 740.111 97.431C769.221 101.637 799.201 99.4315 829.739 97.2933C860.156 95.1637 891.107 93.1032 921.581 97.8568C964.745 104.59 1005.1 124.09 1041.83 147.722C1075.29 169.228 1107.42 195.327 1128.34 229.704L1129.13 231.013C1145.64 258.558 1154.36 289.093 1161.29 320.102C1168.37 351.757 1173.54 383.653 1183.13 414.151L1184.01 416.906C1193.21 445.332 1206.19 472.526 1220.71 499.221H1220.71C1232.88 521.58 1246.1 543.484 1259.16 565.415C1272.21 587.323 1285.1 609.246 1296.53 631.535C1319.39 676.114 1336.52 722.353 1337.54 773.355L1337.56 775.036C1337.66 782.871 1337.37 790.633 1336.7 798.323L1336.55 799.97C1327.09 900.628 1253.77 988.757 1170.88 1048.68L1168.92 1050.09C1124.88 1081.64 1077.44 1108.58 1031.42 1136.56C985.329 1164.59 940.577 1193.7 901.505 1229.73C880.448 1249.17 861.244 1270.37 841.809 1291.55C822.406 1312.69 802.786 1333.79 781.035 1352.81C705.975 1418.44 605.535 1455.35 505.109 1452.5C404.681 1449.65 305.715 1407.41 234.105 1336.65L232.377 1334.94C196.181 1298.81 165.862 1252.89 161.77 1201.45C157.995 1153.98 176.298 1110.47 196.933 1067.66C217.987 1023.9 241.39 981.185 247.646 934.745L247.899 932.779C252.991 891.494 244.098 849.736 230.288 810.804V810.803C206.078 742.788 167.263 680.719 116.125 632.176C109.981 626.343 103.131 620.156 97.5 613.283C91.8347 606.367 87.2097 598.538 85.5938 589.246L85.5947 589.245C83.1558 575.29 88.2115 561.282 93.6943 549.137C131.908 464.422 209.139 403.579 289.306 358.264C317.094 342.485 351.88 328.785 386.379 314.17C421.013 299.499 455.446 283.874 483.076 264.156L483.077 264.155C494.22 256.211 504.209 247.628 512.626 238.196L512.628 238.193C523.419 226.122 530.663 211.765 536.724 196.52C539.754 188.898 542.471 181.102 545.197 173.275C547.916 165.469 550.645 157.627 553.673 150.019C559.726 134.808 567.057 120.299 578.209 108.386C589.411 96.4199 604.337 87.2112 625.343 82.3842Z" stroke="white" stroke-width="6.03759" stroke-miterlimit="10"/>
<path d="M626.96 93.0531C645.805 88.861 664.458 91.2543 682.792 95.2328C701.657 99.3266 719.734 104.955 738.37 107.506C766.962 111.419 796.439 109.062 826.489 106.823C856.417 104.592 886.888 102.481 916.893 107.15H916.894C959.41 113.769 999.185 133.005 1035.38 156.345L1038.47 158.348C1070.31 179.184 1100.61 204.386 1120.61 237.187L1121.39 238.48C1137.72 265.667 1146.44 295.78 1153.39 326.361C1160.5 357.581 1165.72 389.033 1175.23 419.14L1176.1 421.86C1185.23 449.926 1198.02 476.792 1212.28 503.193C1224.22 525.301 1237.17 546.964 1249.94 568.659C1262.7 590.329 1275.28 612.016 1286.41 634.06C1308.68 678.149 1325.28 723.858 1326.1 774.207L1326.12 775.865C1326.2 784.147 1325.84 792.358 1325.05 800.479C1315.37 900.641 1242.14 988.383 1159.42 1047.5C1116.11 1078.45 1069.46 1104.87 1024.2 1132.26C978.867 1159.7 934.843 1188.16 896.366 1223.35C875.634 1242.33 856.704 1263.03 837.551 1283.69C818.43 1304.32 799.099 1324.91 777.702 1343.48C703.942 1407.48 605.482 1443.5 506.998 1440.57C408.512 1437.64 311.468 1396.17 241.208 1326.78C204.803 1290.97 174.038 1245.17 169.808 1193.75L169.721 1192.65C166.237 1146.36 183.922 1103.84 203.938 1061.99C224.515 1018.85 247.48 976.793 253.75 931.1C259.382 889.863 250.807 848.121 237.305 809.22V809.219C213.981 742.342 176.539 681.229 126.84 633.494L122.262 629.127C117.61 624.686 112.827 620.003 108.715 614.945C103.196 608.157 98.6896 600.472 97.1328 591.353L97.0283 590.71C94.9453 577.227 99.8513 563.736 105.165 552.004C142.163 470.235 216.129 411.046 293.358 366.682L297.038 364.58C324.287 349.033 358.367 335.518 392.15 321.111C426.069 306.646 459.776 291.252 486.825 271.859H486.826C497.733 264.044 507.503 255.603 515.743 246.341L515.744 246.34C526.301 234.487 533.392 220.4 539.328 205.441C542.296 197.961 544.958 190.313 547.628 182.631C550.291 174.971 552.964 167.275 555.929 159.807C561.856 144.876 569.031 130.624 579.944 118.906C590.907 107.134 605.513 98.0542 626.062 93.2572L626.96 93.0531Z" stroke="white" stroke-width="6.03759" stroke-miterlimit="10"/>
<path d="M626.774 104.139C645.515 99.6925 664.058 102.001 682.272 105.887C700.721 109.823 718.403 115.243 736.628 117.589C764.706 121.202 793.678 118.69 823.244 116.351C852.687 114.022 882.685 111.87 912.235 116.472C954.11 122.984 993.301 141.956 1028.96 165.004H1028.97C1061.42 185.948 1092.55 211.374 1112.9 244.718H1112.9C1129.54 271.878 1138.42 302.029 1145.52 332.659C1152.64 363.444 1157.92 394.452 1167.35 424.164L1168.21 426.849C1177.27 454.548 1189.86 481.087 1203.86 507.193C1215.59 529.05 1228.26 550.471 1240.74 571.928C1253.21 593.359 1265.47 614.809 1276.31 636.607C1297.98 680.206 1314.05 725.386 1314.67 775.083L1314.69 776.719C1314.74 784.894 1314.35 792.996 1313.55 801.013V801.015C1303.73 899.888 1231.67 986.649 1149.92 1044.94C1107.33 1075.3 1061.48 1101.2 1016.98 1128C972.414 1154.85 929.121 1182.66 891.242 1217C870.827 1235.52 852.169 1255.71 833.298 1275.86C814.459 1295.98 795.42 1316.06 774.377 1334.17C701.924 1396.54 605.436 1431.68 508.894 1428.67H508.893C412.35 1425.65 317.236 1384.96 248.318 1316.93L246.642 1315.27C211.8 1280.57 182.556 1236.56 177.95 1187.25L177.845 1186.06C173.93 1140.1 191.231 1097.89 210.942 1056.34C231.05 1013.82 253.584 972.41 259.86 927.464C265.492 886.919 257.305 845.887 244.321 807.644V807.643C221.885 741.902 185.807 681.75 137.545 634.822V634.821C131.758 629.197 125.257 623.227 119.922 616.613C114.55 609.954 110.161 602.416 108.664 593.464L108.563 592.834C106.564 579.606 111.407 566.37 116.628 554.873C153.591 473.438 227.818 414.762 304.763 370.891C331.464 355.58 364.837 342.247 397.905 328.047C431.108 313.789 464.092 298.623 490.561 279.556L490.562 279.555C501.233 271.876 510.789 263.586 518.852 254.488L518.854 254.487C529.179 242.855 536.118 229.039 541.929 214.368C544.834 207.033 547.439 199.532 550.053 191.997C552.659 184.484 555.276 176.933 558.177 169.605C563.976 154.953 570.997 140.957 581.671 129.433C592.394 117.855 606.679 108.906 626.774 104.139Z" stroke="white" stroke-width="6.03759" stroke-miterlimit="10"/>
<path d="M627.481 115.013C645.809 110.592 663.938 112.801 681.74 116.531C699.77 120.309 717.055 125.518 734.874 127.664C762.446 130.984 790.913 128.32 819.991 125.88C848.945 123.45 878.462 121.251 907.551 125.771H907.55C948.778 132.162 987.392 150.879 1022.52 173.635H1022.52C1054.46 194.293 1085.1 219.38 1105.17 252.204L1105.93 253.463C1121.9 279.933 1130.61 309.199 1137.62 338.925C1144.77 369.274 1150.09 399.839 1159.45 429.16L1160.3 431.809C1169.28 459.151 1181.68 485.368 1195.42 511.174H1195.42C1206.93 532.78 1219.33 553.96 1231.51 575.18C1243.69 596.374 1255.64 617.586 1266.18 639.14C1287.27 682.249 1302.79 726.9 1303.23 775.945C1303.31 784.558 1302.9 793.091 1302.04 801.529V801.53C1292.08 899.121 1221.19 984.902 1140.4 1042.36C1098.54 1072.14 1053.49 1097.5 1009.75 1123.72C965.942 1149.98 923.376 1177.13 886.092 1210.63C866 1228.7 847.617 1248.37 829.028 1268.01C810.472 1287.62 791.721 1307.18 771.032 1324.84C699.887 1385.58 605.371 1419.83 510.771 1416.74H510.77C416.171 1413.64 322.985 1373.73 255.41 1307.07C220.103 1272.43 190.256 1228.12 185.87 1178.37V1178.37C181.889 1133.17 198.693 1091.6 217.935 1050.69L219.782 1046.76C238.938 1006.24 259.866 966.646 265.96 923.827C271.598 883.968 263.792 843.654 251.334 806.066V806.065C229.784 741.461 195.086 682.257 148.255 636.144C142.647 630.622 136.318 624.758 131.132 618.275C125.906 611.743 121.636 604.35 120.198 595.566L120.199 595.565C118.036 582.383 122.869 569.178 128.088 557.733C164.421 477.942 237.141 420.346 312.476 377.205C338.639 362.124 371.309 348.975 403.665 334.98C436.152 320.929 468.411 305.995 494.299 287.253L494.301 287.252C504.737 279.709 514.086 271.563 521.964 262.637L521.966 262.635C532.056 251.221 538.841 237.677 544.525 223.293C547.367 216.101 549.916 208.746 552.474 201.357C555.024 193.99 557.584 186.584 560.422 179.395C566.095 165.023 572.961 151.284 583.396 139.954C593.88 128.57 607.842 119.75 627.481 115.013Z" stroke="white" stroke-width="6.03759" stroke-miterlimit="10"/>
<path d="M628.193 125.887C646.111 121.492 663.829 123.602 681.221 127.175C698.834 130.794 715.722 135.794 733.131 137.74C760.193 140.763 788.156 137.947 816.746 135.407C845.21 132.877 874.247 130.629 902.87 135.064H902.869C943.451 141.34 981.475 159.794 1016.08 182.258H1016.08C1047.52 202.632 1077.65 227.383 1097.44 259.688L1098.2 260.929C1113.99 287.044 1122.7 315.889 1129.73 345.187C1136.9 375.102 1142.28 405.222 1151.56 434.149C1160.52 462.074 1173.08 488.812 1186.99 515.146H1186.99C1198.28 536.5 1210.4 557.439 1222.3 578.42C1234.18 599.376 1245.82 620.352 1256.06 641.66C1276.55 684.279 1291.55 728.4 1291.79 776.793C1291.83 785.29 1291.41 793.708 1290.53 802.038C1280.42 898.339 1210.71 983.148 1130.89 1039.78C1089.76 1068.96 1045.5 1093.8 1002.53 1119.43C959.48 1145.1 917.642 1171.6 880.953 1204.25C861.185 1221.86 843.077 1241.02 824.77 1260.15C806.495 1279.25 788.033 1298.3 767.699 1315.51C697.862 1374.62 605.318 1407.99 512.658 1404.82C420.002 1401.64 328.746 1362.49 262.514 1297.2C227.756 1263.14 198.361 1219.59 193.901 1170.67C189.846 1126.23 206.154 1085.31 224.935 1045.02C244.109 1003.75 265.759 963.643 272.064 920.191C277.716 881.017 270.29 841.419 258.351 804.488V804.487C237.687 741.018 204.354 682.777 158.96 637.466V637.465C153.531 632.049 147.376 626.293 142.337 619.94C137.258 613.536 133.106 606.287 131.731 597.671C129.657 584.748 134.425 571.802 139.551 560.595C174.705 483.663 244.267 427.695 316.754 385.502L320.208 383.504C345.823 368.657 377.782 355.693 409.42 341.908C441.192 328.064 472.727 313.359 498.034 294.943L498.037 294.941C508.238 287.535 517.374 279.538 525.073 270.777L525.075 270.775C534.934 259.58 541.568 246.308 547.126 232.21C549.905 225.162 552.398 217.955 554.899 210.713C557.393 203.492 559.897 196.232 562.671 189.183C568.217 175.09 574.927 161.61 585.122 150.474C595.367 139.285 609.008 130.595 628.192 125.887H628.193Z" stroke="white" stroke-width="6.03759" stroke-miterlimit="10"/>
<path d="M628.9 136.761C646.405 132.392 663.71 134.402 680.688 137.819C697.347 141.172 713.341 145.772 729.783 147.643L731.376 147.816L732.622 147.94C758.794 150.454 785.835 147.535 813.498 144.933C841.473 142.301 870.028 140.003 898.187 144.357L900.057 144.655C939.289 151.095 976.097 169.062 1009.63 190.887C1040.56 210.983 1070.21 235.39 1089.71 267.178C1105.79 293.257 1114.66 322.123 1121.83 351.453C1129.03 380.934 1134.45 410.612 1143.65 439.144H1143.65C1152.54 466.689 1164.92 493.095 1178.55 519.126L1180.63 523.059C1202.16 563.674 1226.75 603.565 1245.94 644.194C1265.84 686.324 1280.3 729.914 1280.34 777.654L1280.34 779.225C1280.3 787.076 1279.85 794.853 1279.02 802.552L1279.02 802.554C1268.76 897.565 1200.23 981.393 1121.37 1037.2C1080.96 1065.79 1037.5 1090.1 995.287 1115.14C953.002 1140.22 911.894 1166.07 875.803 1197.88C856.358 1215.04 838.524 1233.69 820.499 1252.3C803.068 1270.3 785.471 1288.27 766.224 1304.61L764.355 1306.18C696.362 1363.22 606.668 1395.64 516.662 1392.96L514.536 1392.89C423.817 1389.63 334.489 1351.26 269.6 1287.34L268 1285.76C234.499 1252.52 206.385 1210.3 201.922 1162.97C197.8 1119.29 213.602 1079.01 231.922 1039.35C250.619 998.708 271.832 959.246 278.151 916.54C283.809 878.058 276.77 839.169 265.35 802.894V802.893C245.573 740.553 213.617 683.274 169.654 638.772C164.409 633.462 158.428 627.813 153.539 621.592C148.607 615.317 144.573 608.214 143.259 599.766L143.171 599.172C141.428 586.708 146.051 574.256 151.013 563.455C186.096 486.942 255.814 431.512 327.93 389.814C353.005 375.203 384.257 362.422 415.18 348.844C446.236 335.208 477.047 320.736 501.773 302.648L501.774 302.647C511.733 295.369 520.656 287.515 528.179 278.923L528.181 278.922C537.807 267.947 544.29 254.945 549.724 241.133C552.44 234.228 554.877 227.168 557.322 220.072C559.76 212.997 562.208 205.882 564.919 198.972C570.338 185.158 576.892 171.933 586.848 160.992C596.852 149.997 610.172 141.437 628.9 136.761Z" stroke="white" stroke-width="6.03759" stroke-miterlimit="10"/>
<path d="M629.612 147.636C646.7 143.289 663.595 145.197 680.164 148.458C696.945 151.76 713.035 156.342 729.626 157.892C755.68 160.327 782.636 157.205 810.253 154.461C837.741 151.731 865.819 149.387 893.523 153.664L895.363 153.957C933.96 160.28 970.202 177.987 1003.21 199.525C1033.63 219.335 1062.79 243.406 1082 274.675L1082.74 275.883C1098.17 301.284 1106.88 329.283 1113.96 357.726C1121.18 386.772 1126.65 416.004 1135.78 444.146L1136.61 446.689C1145.36 472.94 1157.19 498.19 1170.14 523.107L1172.18 526.994C1193.28 567.14 1217.21 606.548 1235.83 646.722C1255.14 688.361 1269.07 731.422 1268.92 778.508L1268.92 778.509C1268.9 786.261 1268.48 793.947 1267.69 801.55L1267.53 803.07C1257.13 896.797 1189.77 979.646 1111.88 1034.62C1072.19 1062.62 1029.53 1086.41 988.074 1110.86C946.549 1135.36 906.169 1160.55 870.672 1191.52C851.552 1208.22 833.991 1226.35 816.249 1244.45C798.538 1262.52 780.656 1280.55 761.031 1296.86C693.81 1352.71 605.211 1384.31 516.434 1380.97C427.658 1377.63 340.261 1340.03 276.714 1277.48L275.14 1275.93C242.169 1243.27 214.505 1201.78 209.962 1155.28C205.766 1112.35 221.071 1072.71 238.929 1033.69C257.156 993.669 277.939 954.862 284.266 912.902C289.929 875.108 283.271 836.938 272.378 801.321L271.483 798.456C252.522 738.355 222.238 683.104 180.369 640.092C175.303 634.888 169.496 629.344 164.755 623.253C159.97 617.104 156.056 610.145 154.802 601.87C152.907 589.467 157.532 577.05 162.479 566.315C196.94 491.451 265.155 437.1 335.656 396.125C360.184 381.746 390.729 369.15 420.937 355.781C451.277 342.352 481.364 328.111 505.51 310.345L505.513 310.343C515.243 303.202 523.952 295.499 531.29 287.073L531.292 287.07C540.685 276.313 547.017 263.582 552.324 250.057C554.978 243.295 557.358 236.382 559.747 229.432C562.129 222.503 564.52 215.533 567.167 208.763C572.459 195.228 578.858 182.26 588.575 171.513C598.34 160.713 611.34 152.284 629.612 147.637V147.636Z" stroke="white" stroke-width="6.03759" stroke-miterlimit="10"/>
<path d="M630.316 158.518C646.994 154.196 663.479 156.002 679.637 159.106C696.003 162.249 711.692 166.621 727.874 167.975H727.873C753.433 170.11 779.885 166.834 807.01 163.989C834.004 161.157 861.594 158.765 888.83 162.956C927.475 168.904 963.76 186.568 996.759 208.156H996.76C1026.68 227.683 1055.34 251.419 1074.27 282.173H1074.27C1089.97 307.529 1098.84 335.534 1106.05 363.992C1113.3 392.605 1118.82 421.393 1127.87 449.142L1128.7 451.651C1137.36 477.542 1149.01 502.464 1161.7 527.087C1182.85 568.096 1207.06 608.259 1225.7 649.257C1244.12 689.765 1257.39 731.611 1257.48 777.2L1257.47 779.373C1257.42 787.531 1256.92 795.602 1256.01 803.594C1245.56 895.308 1180.32 976.626 1104.16 1030.78L1102.36 1032.05C1063.41 1059.46 1021.54 1082.72 980.844 1106.59C940.081 1130.49 900.429 1155.04 865.526 1185.15C846.729 1201.4 829.442 1219.03 811.981 1236.62C794.552 1254.18 776.961 1271.69 757.69 1287.54C691.771 1341.77 605.144 1372.48 518.309 1369.06H518.308C431.476 1365.64 346.001 1328.81 283.804 1267.63C250.7 1235.31 222.677 1193.99 217.987 1147.59L217.801 1145.62C214.188 1104.22 228.796 1065.84 245.921 1028.04C263.678 988.646 284.023 950.479 290.364 909.272C296.028 872.167 289.755 834.71 279.379 799.74V799.739C261.374 739.66 232.168 684.308 191.066 641.418V641.417C186.181 636.317 180.546 630.88 175.955 624.92C171.317 618.899 167.52 612.084 166.326 603.976L166.327 603.975C164.524 591.827 169.077 579.68 173.938 569.182C207.771 495.95 274.571 442.83 343.369 402.439L345.637 401.122C369.245 387.566 398.141 375.518 426.708 362.753C456.323 349.52 485.672 335.484 509.238 318.043L509.242 318.04C518.737 311.035 527.233 303.483 534.393 295.221L534.396 295.218C543.557 284.68 549.737 272.22 554.92 258.983C557.511 252.364 559.835 245.598 562.168 238.795C564.494 232.013 566.828 225.189 569.412 218.559C574.578 205.304 580.821 192.593 590.298 182.041C599.823 171.436 612.5 163.135 630.316 158.518Z" stroke="white" stroke-width="6.03759" stroke-miterlimit="10"/>
<path d="M631.03 169.393C647.295 165.096 663.368 166.801 679.115 169.747C695.066 172.731 710.354 176.893 726.123 178.052H726.122C751.185 179.891 777.132 176.462 803.769 173.517C830.273 170.587 857.379 168.15 884.155 172.263H884.154C922.152 178.09 957.861 195.498 990.325 216.793L993.078 218.609C1021.49 237.504 1048.48 260.383 1066.54 289.664L1067.26 290.838C1082.33 315.524 1091.04 342.679 1098.16 370.267C1105.44 398.446 1111.01 426.789 1119.98 454.144L1120.8 456.618C1129.39 482.15 1140.85 506.745 1153.27 531.076L1155.22 534.872C1175.46 574.076 1198.09 612.538 1215.59 651.795C1233.71 692.455 1246.57 734.457 1246.03 780.237C1245.95 788.274 1245.43 796.236 1244.51 804.109V804.11C1233.82 895.255 1168.82 976.152 1092.85 1029.47C1054.62 1056.29 1013.55 1079.02 973.617 1102.3C933.614 1125.61 894.69 1149.51 860.381 1178.78C841.905 1194.57 824.894 1211.68 807.718 1228.76C790.572 1245.81 773.272 1262.81 754.353 1278.21C689.741 1330.81 605.08 1360.63 520.193 1357.14H520.192C435.96 1353.65 353.182 1318 292.334 1259.15L290.9 1257.76C258.417 1225.96 230.78 1185.46 226.016 1139.89C221.686 1098.49 235.995 1060.14 252.923 1022.37C270.203 983.601 290.11 946.083 296.466 905.62C302.136 869.199 296.243 832.458 286.393 798.142V798.141C269.274 739.204 241.446 684.815 201.774 642.728L201.773 642.727C197.072 637.736 191.61 632.402 187.168 626.574C182.676 620.681 178.996 614.01 177.862 606.07L177.863 606.069C176.151 594.19 180.63 582.304 185.397 572.044C218.609 500.46 283.906 448.427 351.09 408.75L353.307 407.455C376.381 394.124 404.594 382.254 432.468 369.69C461.368 356.664 489.991 342.858 512.978 325.742L512.981 325.738C522.24 318.87 530.522 311.46 537.506 303.369L537.509 303.366C546.439 293.047 552.467 280.858 557.524 267.906C560.053 261.431 562.321 254.811 564.598 248.154C566.867 241.518 569.145 234.839 571.665 228.348C576.703 215.373 582.792 202.919 592.028 192.561C601.313 182.15 613.668 173.979 631.03 169.393Z" stroke="white" stroke-width="6.03759" stroke-miterlimit="10"/>
<path d="M631.734 180.269C647.585 175.997 663.248 177.599 678.584 180.388C694.12 183.213 709.005 187.163 724.361 188.127C748.934 189.67 774.379 186.09 800.526 183.041C826.539 180.009 853.159 177.521 879.471 181.549H879.47C916.82 187.262 951.945 204.406 983.875 225.41L986.581 227.199C1014.5 245.814 1041.01 268.361 1058.8 297.139L1059.52 298.296C1074.41 322.623 1083.11 349.354 1090.26 376.515C1097.56 404.259 1103.18 432.159 1112.08 459.125H1112.08C1120.68 485.165 1132.28 510.231 1144.83 535.036H1144.83C1165.12 575.069 1187.99 614.263 1205.46 654.31C1222.99 694.481 1235.32 735.952 1234.59 781.079C1234.47 789.007 1233.93 796.846 1233 804.612V804.613C1222.17 894.473 1158.34 974.396 1083.33 1026.88C1045.83 1053.11 1005.56 1075.32 966.386 1098.01C927.144 1120.73 888.947 1143.97 855.236 1172.39C837.083 1187.73 820.346 1204.33 803.451 1220.9C787.114 1236.92 770.641 1252.89 752.749 1267.47L751.013 1268.87C688.212 1319.44 606.312 1348.32 524.021 1345.28L522.076 1345.2C439.123 1341.62 357.642 1306.19 298 1247.89C266.073 1216.68 238.887 1176.92 234.049 1132.19C229.653 1091.55 243.456 1053.85 259.923 1016.71C276.734 978.555 296.211 941.693 302.574 901.975C308.251 866.241 302.745 830.217 293.414 796.56C277.181 738.752 250.73 685.331 212.479 644.039C207.958 639.158 202.669 633.931 198.376 628.235C194.031 622.469 190.47 615.942 189.396 608.17L189.397 608.169C187.776 596.544 192.185 584.933 196.866 574.902C229.449 504.953 293.249 454.015 358.815 415.054L360.981 413.782C383.52 400.676 411.045 388.985 438.226 376.621C466.409 363.8 494.308 350.223 516.714 333.433L516.717 333.43C525.735 326.689 533.805 319.437 540.61 311.51L540.613 311.507C549.31 301.408 555.186 289.492 560.118 276.828C562.584 270.496 564.797 264.024 567.018 257.513C569.231 251.023 571.453 244.49 573.91 238.139C583.775 212.639 597.681 189.448 631.734 180.269Z" stroke="white" stroke-width="6.03759" stroke-miterlimit="10"/>
<path d="M632.441 191.144C647.882 186.896 663.138 188.396 678.064 191.026C693.187 193.692 707.67 197.431 722.61 198.204C746.694 199.451 771.634 195.719 797.292 192.57C822.814 189.439 848.949 186.905 874.804 190.856C911.507 196.462 946.055 213.343 977.451 234.055L980.109 235.818C1007.53 254.167 1033.58 276.375 1051.09 304.651L1051.79 305.791C1066.5 329.762 1075.2 356.071 1082.38 382.805C1089.7 410.115 1095.37 437.567 1104.19 464.141L1105 466.544C1113.43 491.347 1124.51 515.301 1136.41 539.038L1138.28 542.744C1157.65 581.009 1178.99 618.539 1195.35 656.871C1212.29 696.552 1224.08 737.491 1223.16 781.964C1223.02 789.282 1222.51 796.534 1221.67 803.716L1221.5 805.151C1210.53 893.719 1147.87 972.671 1073.82 1024.32C1037.06 1049.97 997.582 1071.65 959.164 1093.75C920.681 1115.88 883.21 1138.47 850.092 1166.05C832.263 1180.93 815.801 1197.02 799.19 1213.07C782.609 1229.09 765.889 1245.07 747.676 1259.57C686.18 1308.51 606.226 1336.51 525.861 1333.37L523.963 1333.29C442.953 1329.62 363.401 1294.97 305.103 1238.04C273.725 1207.4 247 1168.4 242.08 1124.51C237.61 1084.63 250.915 1047.57 266.92 1011.06C283.268 973.533 302.301 937.318 308.679 898.344C314.362 863.296 309.241 827.978 300.428 794.974V794.973C285.08 738.293 260.006 685.847 223.188 645.36C218.848 640.587 213.728 635.46 209.585 629.896C205.386 624.259 201.944 617.877 200.935 610.276L200.936 610.275C199.412 598.913 203.748 587.565 208.336 577.771C240.297 509.47 302.6 459.619 366.545 421.373L368.659 420.122C390.661 407.242 417.501 395.727 443.988 383.562C471.455 370.948 498.628 357.6 520.454 341.139L520.457 341.137C529.241 334.525 537.104 327.415 543.725 319.66L543.728 319.656C552.192 309.774 557.915 298.127 562.722 285.748C565.125 279.559 567.281 273.234 569.445 266.869C571.602 260.525 573.768 254.137 576.161 247.926C585.77 222.988 599.306 200.262 632.441 191.145V191.144Z" stroke="white" stroke-width="6.03759" stroke-miterlimit="10"/>
<path d="M794.06 202.097C819.091 198.866 844.742 196.29 870.144 200.163C906.199 205.655 940.17 222.281 971.031 242.693L973.643 244.429C1000.58 262.499 1026.15 284.375 1043.39 312.149L1044.08 313.271C1058.61 336.882 1067.31 362.765 1074.5 389.07C1081.85 415.944 1087.57 442.95 1096.32 469.135L1097.12 471.503C1105.47 495.949 1116.37 519.584 1128.01 543.022H1128C1147.42 582.078 1168.96 620.314 1185.26 659.403C1201.6 698.593 1212.86 739.002 1211.75 782.821C1211.56 790.512 1210.96 798.134 1210.01 805.666V805.669C1198.89 892.951 1137.42 970.923 1064.33 1021.75C1028.29 1046.81 989.61 1067.96 951.951 1089.47C914.228 1111.02 877.484 1132.96 844.96 1159.69L844.959 1159.69C827.453 1174.12 811.269 1189.69 794.941 1205.23C778.643 1220.74 762.212 1236.2 744.351 1250.25C683.687 1297.95 604.923 1325.12 525.861 1321.38C446.788 1317.63 369.173 1283.73 312.211 1228.18C281.39 1198.12 255.118 1159.88 250.123 1116.82C245.586 1077.71 258.385 1041.29 273.929 1005.41C289.8 968.51 308.395 932.943 314.788 894.711C320.485 860.348 315.737 825.744 307.448 793.394V793.393C293.212 738.712 270.027 687.98 235.543 648.55L233.893 646.681C229.734 642.018 224.786 636.993 220.794 631.563C216.743 626.052 213.42 619.814 212.472 612.382L212.473 612.381C211.034 601.273 215.296 590.196 219.798 580.638L220.538 579.078C252.08 513.211 312.424 464.922 374.266 427.685V427.684C396.112 414.531 423.121 402.851 449.746 390.5C476.495 378.092 502.943 364.973 524.192 348.837L524.196 348.834C532.751 342.359 540.393 335.4 546.837 327.809L546.841 327.805C555.074 318.144 560.646 306.768 565.327 294.677C567.667 288.632 569.769 282.454 571.876 276.236C573.976 270.038 576.085 263.796 578.414 257.725C587.767 233.351 600.932 211.088 633.152 202.028V202.027C648.179 197.804 663.027 199.199 677.543 201.671C692.252 204.177 706.331 207.706 720.855 208.288C744.455 209.233 768.89 205.346 794.06 202.097Z" stroke="white" stroke-width="6.03759" stroke-miterlimit="10"/>
<path d="M790.82 211.624C815.357 208.294 840.513 205.672 865.451 209.471L865.452 209.47C900.868 214.854 934.255 231.217 964.581 251.337H964.582C991.963 269.454 1018.14 291.503 1035.65 319.653L1036.34 320.758C1050.69 344.01 1059.38 369.47 1066.6 395.348C1073.98 421.791 1079.74 448.351 1088.42 474.145C1096.8 499.061 1107.83 523.127 1119.57 547.017C1138.55 585.584 1159.42 623.347 1175.13 661.956C1190.88 700.657 1201.6 740.536 1200.3 783.699C1200.07 791.273 1199.47 798.773 1198.5 806.199V806.201C1187.23 892.19 1126.94 969.189 1054.81 1019.18C1019.5 1043.65 981.618 1064.28 944.719 1085.2C907.757 1106.16 871.741 1127.44 839.814 1153.33C822.631 1167.3 806.719 1182.37 790.673 1197.39C774.656 1212.39 758.516 1227.34 741.009 1240.93C681.662 1287 604.863 1313.29 527.744 1309.46H527.743C450.614 1305.63 374.937 1272.5 319.312 1218.32C289.048 1188.84 263.221 1151.35 258.151 1109.14L257.947 1107.34C253.925 1069.65 266.083 1034.46 280.922 999.752C296.324 963.465 314.489 928.555 320.89 891.066C326.409 858.441 322.546 825.596 315.179 794.781L314.455 791.805C300.994 737.362 278.575 686.89 244.589 647.987L244.588 647.986C240.616 643.435 235.838 638.51 231.997 633.214C228.093 627.832 224.889 621.739 224.001 614.478L224 614.479C222.657 603.638 226.85 592.82 231.26 583.496L231.984 581.976C262.895 517.736 321.746 470.523 381.984 433.996C403.287 421.08 429.588 409.583 455.497 397.439C481.529 385.237 507.252 372.347 527.922 356.536L527.927 356.533C536.246 350.195 543.675 343.386 549.941 335.959L549.945 335.954L550.688 335.065C558.284 325.817 563.509 315.037 567.922 303.601C570.199 297.699 572.244 291.667 574.296 285.595C576.34 279.544 578.393 273.447 580.659 267.515C589.757 243.703 602.554 221.903 633.854 212.904L634.539 212.711C648.918 208.742 663.128 210.027 677.015 212.305C691.311 214.65 704.986 217.97 719.091 218.365C742.213 219.014 766.143 214.974 790.82 211.624Z" stroke="white" stroke-width="6.03759" stroke-miterlimit="10"/>
<path d="M787.59 221.146C811.634 217.715 836.301 215.044 860.783 218.755C895.545 224.018 928.356 240.126 958.148 259.954C985.024 277.786 1010.7 299.497 1027.93 327.128L1028.6 328.216C1042.77 351.112 1051.47 376.149 1058.71 401.599C1066.11 427.61 1071.92 453.721 1080.52 479.125L1081.31 481.422C1089.51 505.144 1100.02 528.126 1111.14 550.978L1112.88 554.542C1149.55 629.329 1191.8 701.015 1188.86 784.537C1188.6 791.995 1187.96 799.386 1186.98 806.694V806.698C1175.58 891.392 1116.47 967.42 1045.3 1016.58C1010.71 1040.47 973.628 1060.56 937.486 1080.9C901.282 1101.27 865.992 1121.9 834.658 1146.95L834.657 1146.95C817.794 1160.47 802.158 1175.02 786.397 1189.53C770.664 1204.02 754.816 1218.45 737.661 1231.59H737.66C679.63 1276.04 604.798 1301.43 529.621 1297.53H529.62C454.435 1293.61 380.695 1261.25 326.406 1208.45C296.924 1179.77 271.714 1143.38 266.298 1102.4L266.173 1101.43C261.494 1063.83 273.295 1028.71 287.909 994.08C302.842 958.42 320.569 924.16 326.985 887.412C332.69 854.416 328.776 821.218 321.462 790.202C309.09 737.715 288.505 688.943 256.803 651.078L255.285 649.283C251.496 644.848 246.888 640.024 243.198 634.864C239.442 629.61 236.357 623.66 235.53 616.568L235.529 616.569C234.278 605.984 238.397 595.437 242.722 586.349L243.433 584.867C273.706 522.248 331.069 476.118 389.704 440.301L391.664 439.117C412.065 426.913 436.848 415.934 461.255 404.37C486.571 392.374 511.569 379.714 531.659 364.229L531.664 364.226C539.741 358.023 546.964 351.357 553.046 344.102L553.051 344.097C560.82 334.873 566.09 324.037 570.521 312.518C572.736 306.76 574.725 300.875 576.721 294.95C578.709 289.045 580.705 283.093 582.908 277.301C591.75 254.053 604.176 232.719 634.558 223.78C648.76 219.602 662.795 220.785 676.493 222.94C690.378 225.124 703.647 228.234 717.332 228.444C739.978 228.789 763.404 224.597 787.59 221.146Z" stroke="white" stroke-width="6.03759" stroke-miterlimit="10"/>
<path d="M784.361 230.672C807.909 227.142 832.079 224.426 856.091 228.056C890.206 233.212 922.433 249.056 951.697 268.592C978.071 286.141 1003.26 307.519 1020.2 334.635H1020.2C1034.58 357.458 1043.43 382.451 1050.81 407.867C1058.24 433.446 1064.1 459.109 1072.62 484.126H1072.62C1080.86 508.285 1091.51 531.688 1102.71 554.968L1104.41 558.485C1140.18 632.306 1180.73 703.166 1177.41 785.409C1177.12 792.753 1176.47 800.021 1175.48 807.22L1175.48 807.223C1163.93 890.63 1106 965.687 1035.78 1014.01C1001.93 1037.31 965.644 1056.88 930.262 1076.63C894.818 1096.41 860.254 1116.38 829.514 1140.59L829.513 1140.59C812.973 1153.65 797.612 1167.69 782.134 1181.69C766.683 1195.66 751.126 1209.59 734.322 1222.28C677.616 1265.09 604.743 1289.6 531.508 1285.61H531.507C458.266 1281.62 386.456 1250.03 333.511 1198.6V1198.6C304.354 1170.27 279.432 1134.29 274.213 1093.75L274.002 1092.02C269.82 1055.84 280.982 1021.91 294.914 988.436C309.377 953.397 326.667 919.786 333.099 883.778H333.1C338.633 852.474 335.495 821.01 329.114 791.471L328.486 788.618C316.986 737.249 297.754 689.445 267.443 652.364L265.991 650.607C262.385 646.287 257.945 641.558 254.408 636.533C250.8 631.407 247.836 625.602 247.07 618.68C245.911 608.357 249.958 598.071 254.189 589.22C283.647 527.491 339.947 482.004 397.427 446.621C417.644 434.177 442.531 423.046 467.01 411.316C491.609 399.527 515.883 387.097 535.393 371.937L535.396 371.934C543.24 365.859 550.25 359.344 556.154 352.253L556.159 352.247C563.696 343.241 568.814 332.676 573.12 321.443C575.273 315.828 577.206 310.09 579.146 304.311C581.078 298.552 583.018 292.746 585.157 287.094C593.744 264.41 605.801 243.54 635.262 234.657H635.263C649.05 230.503 662.678 231.578 675.967 233.572C689.439 235.595 702.304 238.494 715.569 238.522C737.747 238.567 760.669 234.224 784.361 230.672Z" stroke="white" stroke-width="6.03759" stroke-miterlimit="10"/>
<path d="M781.133 240.196C804.185 236.567 827.861 233.81 851.414 237.37L851.413 237.371C884.888 242.413 916.532 257.994 945.262 277.237C971.134 294.505 995.768 315.573 1012.47 342.135L1013.13 343.19C1026.89 365.393 1035.58 389.58 1042.88 414.167C1050.35 439.305 1056.28 464.505 1064.73 489.134L1065.5 491.361C1073.55 514.363 1083.69 536.706 1094.27 558.966C1129.58 633.065 1169.73 704.031 1165.97 786.282C1165.65 793.511 1164.97 800.671 1163.97 807.755L1163.97 807.756C1152.37 889.227 1096.42 962.788 1027.89 1010.33L1026.27 1011.44C993.148 1034.16 957.655 1053.2 923.03 1072.36C888.344 1091.55 854.506 1110.87 824.362 1134.23L824.361 1134.23C808.144 1146.84 793.061 1160.37 777.867 1173.85C762.7 1187.32 747.432 1200.73 730.977 1212.96C675.587 1254.15 604.681 1277.76 533.389 1273.7H533.388C462.648 1269.65 393.311 1239.28 341.823 1189.91L340.61 1188.74C312.002 1161 287.541 1125.77 282.24 1086.07L282.026 1084.38C277.758 1048.93 288.429 1015.64 301.906 982.786C315.893 948.366 332.746 915.414 339.193 880.145C344.733 849.508 341.957 818.734 336.07 789.825L335.491 787.033C324.869 736.773 306.996 689.943 278.069 653.642L276.684 651.921C273.265 647.721 268.992 643.084 265.608 638.195C262.147 633.195 259.302 627.532 258.598 620.782L258.597 620.783C257.529 610.716 261.504 600.7 265.65 592.084C294.479 531.999 349.288 487.608 405.143 452.941C424.82 440.729 449 429.783 472.765 418.26C496.648 406.678 520.197 394.479 539.127 379.644L539.133 379.64C546.745 373.704 553.536 367.332 559.265 360.41L559.269 360.404C566.575 351.618 571.543 341.324 575.724 330.379C577.814 324.907 579.692 319.316 581.575 313.684C583.452 308.071 585.335 302.41 587.411 296.897C595.742 274.777 607.427 254.372 635.967 245.55L637.22 245.177C650.166 241.473 662.966 242.433 675.443 244.21C688.504 246.07 700.962 248.762 713.805 248.608C735.515 248.347 757.932 243.849 781.133 240.196Z" stroke="white" stroke-width="6.03759" stroke-miterlimit="10"/>
<path d="M777.908 249.721C800.465 245.993 823.645 243.191 846.747 246.67L846.746 246.671C879.576 251.599 910.645 266.918 938.842 285.871H938.841C964.2 302.861 988.335 323.59 1004.75 349.624C1018.71 371.751 1027.56 395.883 1035 420.426C1042.49 445.134 1048.47 469.882 1056.84 494.128L1057.6 496.321C1065.57 518.965 1075.53 540.981 1085.85 562.95L1089.09 569.796C1122.64 640.458 1158.56 708.726 1154.54 787.148C1154.18 794.259 1153.48 801.303 1152.47 808.272L1152.46 808.274C1140.63 889.091 1085.07 962.205 1016.76 1008.87C984.373 1031 949.678 1049.51 915.812 1068.08C881.886 1086.69 848.773 1105.35 819.223 1127.87C803.327 1140.02 788.517 1153.04 773.605 1166.01C758.721 1178.96 743.744 1191.86 727.641 1203.64C673.576 1243.2 604.623 1265.92 535.272 1261.78H535.271C465.912 1257.61 397.971 1227.56 347.706 1178.88C320.092 1152.14 296.398 1118.31 290.537 1080.19L290.271 1078.37C285.39 1043.06 295.678 1009.88 308.908 977.129C322.433 943.328 338.849 911.027 345.305 876.497C350.845 846.519 348.431 816.433 343.037 788.162L342.506 785.432C332.6 735.493 315.707 688.976 287.377 653.218C284.145 649.138 280.035 644.59 276.806 639.842C273.491 634.969 270.766 629.449 270.128 622.867L270.127 622.868C269.16 613.074 273.053 603.324 277.115 594.941C305.321 536.501 358.624 493.19 412.862 459.247C431.995 447.271 455.468 436.508 478.518 425.192C501.685 413.819 524.51 401.85 542.856 387.345L542.863 387.34C550.24 381.54 556.818 375.318 562.369 368.561L562.374 368.556C569.449 359.986 574.264 349.961 578.319 339.301C580.347 333.972 582.168 328.527 583.995 323.04C585.815 317.573 587.642 312.058 589.654 306.686C597.729 285.13 609.042 265.191 636.66 256.428L637.875 256.057C650.423 252.368 662.832 253.219 674.914 254.84C687.564 256.537 699.615 259.018 712.034 258.688L714.029 258.623C734.66 257.834 755.909 253.356 777.908 249.721Z" stroke="white" stroke-width="6.03759" stroke-miterlimit="10"/>
<path d="M774.687 259.241C796.747 255.413 819.429 252.565 842.075 255.956C874.266 260.776 904.752 275.834 932.415 294.496H932.414C956.88 310.941 980.159 330.957 996.274 355.915L997.037 357.106V357.107C1010.8 378.873 1019.65 402.574 1027.12 426.683C1034.64 450.963 1040.66 475.254 1048.96 499.114C1056.98 522.153 1067.05 544.55 1077.44 566.92C1110.99 639.043 1147.64 708.342 1143.11 787.995C1142.72 794.99 1142 801.918 1140.97 808.777V808.78C1129.09 887.686 1075.47 959.322 1008.84 1005.2L1007.27 1006.28C975.604 1027.82 941.706 1045.82 908.597 1063.8C875.43 1081.81 843.042 1099.82 814.084 1121.5C798.51 1133.2 783.975 1145.7 769.347 1158.16C755.201 1170.21 740.976 1182.21 725.781 1193.25L724.308 1194.31C671.568 1232.24 604.575 1254.07 537.167 1249.85H537.166C469.751 1245.6 403.748 1216.31 354.82 1169.01C327.318 1142.42 303.764 1108.7 298.313 1070.68C293.512 1037.2 302.555 1005.63 314.728 974.48L315.914 971.467C328.97 938.284 344.947 906.643 351.42 872.849C357.153 842.591 354.776 812.236 349.532 783.829V783.828C340.526 735.014 325.014 689.5 298.089 654.513C295.047 650.563 291.1 646.101 288.026 641.496C284.859 636.749 282.25 631.37 281.675 624.956L281.676 624.955C280.796 615.425 284.624 605.947 288.59 597.8C316.166 541.003 367.971 498.788 420.593 465.561C439.181 453.825 461.944 443.247 484.276 432.138C506.726 420.971 528.826 409.23 546.597 395.047L546.604 395.042C553.739 389.378 560.111 383.299 565.479 376.714L565.483 376.708C572.326 368.356 576.99 358.6 580.92 348.225C582.884 343.039 584.65 337.741 586.421 332.401C588.185 327.08 589.956 321.71 591.905 316.477C599.724 295.485 610.667 276.01 637.363 267.306C649.914 263.216 662.33 263.956 674.393 265.467C686.63 267.001 698.273 269.272 710.266 268.768H710.267C731.068 267.897 752.47 263.096 774.687 259.241Z" stroke="white" stroke-width="6.03759" stroke-miterlimit="10"/>
<path d="M771.467 268.761C793.029 264.837 815.207 261.949 837.388 265.262L837.387 265.263C868.925 269.963 898.834 284.764 925.963 303.134H925.962C950.318 319.563 973.451 339.618 989.301 364.611L990.56 366.623C1003.42 387.47 1011.95 410.026 1019.21 432.96C1026.76 456.814 1032.82 480.645 1041.05 504.123L1041.8 506.246C1049.62 528.169 1059.19 549.539 1069 570.918C1101.68 642.059 1136.59 710.524 1131.67 788.876C1131.24 795.748 1130.5 802.567 1129.46 809.312V809.314C1117.34 887.552 1064.14 958.723 997.743 1003.72C966.811 1024.68 933.706 1042.15 901.354 1059.54C868.944 1076.96 837.282 1094.32 808.919 1115.15L808.92 1115.15C793.668 1126.4 779.409 1138.39 765.064 1150.34C750.746 1162.27 736.351 1174.14 720.948 1185.01C669.541 1221.31 604.5 1242.25 539.035 1237.94L539.034 1237.94C473.565 1233.6 409.492 1205.09 361.909 1159.16C335.384 1133.56 312.586 1101.2 306.609 1064.74L306.338 1063C301.315 1029.21 310.6 997.325 322.898 965.83C335.479 933.26 351.019 902.266 357.51 869.213L357.773 867.827C363.189 838.706 361.187 809.552 356.534 782.23C348.54 735.284 334.727 691.419 309.954 657.424L308.767 655.813C305.914 651.991 302.125 647.604 299.211 643.146C296.192 638.527 293.705 633.292 293.192 627.047L293.193 627.046C292.407 617.774 296.161 608.568 300.041 600.657C326.994 545.505 377.293 504.379 428.297 471.869L428.298 471.868C446.344 460.368 468.4 449.974 490.018 439.072C511.751 428.111 533.128 416.6 550.319 402.742L550.325 402.737C557.228 397.201 563.387 391.28 568.576 384.859L568.582 384.852C575.195 376.72 579.708 367.235 583.514 357.147C585.416 352.104 587.125 346.953 588.84 341.759C590.548 336.585 592.262 331.36 594.147 326.267C601.71 305.84 612.281 286.831 638.055 278.186C650.193 274.115 662.206 274.739 673.861 276.088C685.689 277.458 696.925 279.522 708.492 278.849C728.848 277.667 749.744 272.715 771.467 268.761Z" stroke="white" stroke-width="6.03759" stroke-miterlimit="10"/>
<path d="M768.252 278.278C789.315 274.255 810.989 271.327 832.712 274.562L832.711 274.563C863.6 279.156 892.933 293.693 919.526 311.771L921.758 313.294C944.779 329.152 966.495 348.399 981.578 372.107L982.819 374.086C995.511 394.579 1004.03 416.716 1011.31 439.229C1018.89 462.658 1025 486.021 1033.16 509.122L1033.9 511.211C1041.64 532.773 1051.03 553.824 1060.57 574.913H1060.57C1092.37 645.064 1125.53 712.695 1120.23 789.745C1119.77 796.51 1119 803.205 1117.95 809.837V809.841C1105.69 886.774 1053.68 956.982 988.233 1001.14C958.034 1021.52 925.727 1038.46 894.132 1055.26C862.479 1072.1 831.54 1088.8 803.768 1108.79C788.837 1119.58 774.856 1131.06 760.798 1142.5C746.764 1153.91 732.661 1165.27 717.607 1175.69C667.533 1210.35 604.446 1230.41 540.924 1226.02H540.923C477.398 1221.61 415.264 1193.86 369.019 1149.31C342.622 1123.88 319.983 1091.65 314.375 1055.31L314.146 1053.77C309.552 1021.31 318.249 990.562 329.903 960.172C342.016 928.218 357.122 897.882 363.622 865.564C369.37 836.663 367.765 807.737 363.556 780.629C356.327 734.065 343.595 690.566 319.47 657.117V657.116C316.814 653.433 313.176 649.109 310.424 644.804C307.554 640.314 305.189 635.225 304.737 629.154C304.041 620.144 307.724 611.198 311.512 603.521C337.834 550.015 386.634 509.977 436.021 478.189C453.522 466.922 474.87 456.712 495.772 446.018C516.789 435.264 537.442 423.984 554.054 410.451L554.059 410.447C560.727 405.04 566.674 399.268 571.687 393.012L571.692 393.004C578.075 385.088 582.439 375.871 586.12 366.068C587.96 361.168 589.615 356.162 591.273 351.114C592.926 346.085 594.584 341.006 596.406 336.054C603.713 316.191 613.911 297.649 638.757 289.066L639.855 288.7C651.204 285.05 662.441 285.562 673.338 286.711C684.756 287.915 695.584 289.768 706.722 288.931L708.591 288.78C727.913 287.119 747.687 282.206 768.252 278.278Z" stroke="white" stroke-width="6.03759" stroke-miterlimit="10"/>
<path d="M765.036 287.795C785.597 283.676 806.761 280.711 828.016 283.869L828.015 283.87C858.264 288.348 887.012 302.624 913.071 320.408H913.072C936.413 336.27 958.552 355.651 973.833 379.604L975.058 381.547C987.576 401.679 996.095 423.397 1003.4 445.489C1011.01 468.5 1017.16 491.387 1025.25 514.115C1033.06 536.03 1042.55 557.427 1052.12 578.889L1057.92 591.833C1086.84 656.442 1114.1 719.589 1108.77 790.602L1108.77 790.603C1108.28 797.243 1107.49 803.831 1106.43 810.352V810.355C1094.03 885.996 1043.2 955.234 978.709 998.559C949.242 1018.35 917.731 1034.76 886.892 1050.98C855.997 1067.23 825.782 1083.27 798.603 1102.42C783.992 1112.76 770.286 1123.73 756.511 1134.65C742.76 1145.55 728.948 1156.4 714.243 1166.37C665.503 1199.4 604.369 1218.56 542.79 1214.09H542.789C481.21 1209.6 421.008 1182.62 376.106 1139.44C350.266 1114.59 328.082 1083.12 322.398 1047.62C317.232 1015.35 325.577 984.775 336.888 954.517C348.591 923.22 363.2 893.502 369.718 861.92L369.982 860.597C375.436 832.82 374.198 805.063 370.563 779.019C364.228 733.574 352.888 691.092 330.158 658.403C328.839 656.505 327.419 654.648 325.935 652.651C324.473 650.684 322.976 648.619 321.619 646.443C318.897 642.077 316.653 637.127 316.266 631.227L316.267 631.226C315.667 622.486 319.273 613.818 322.974 606.381C348.673 554.519 395.967 515.576 443.737 484.505V484.504C460.697 473.474 481.338 463.447 501.525 452.959C521.826 442.413 541.754 431.362 557.787 418.155L557.795 418.149C564.234 412.879 569.967 407.251 574.796 401.165L574.803 401.157C580.954 393.461 585.167 384.514 588.723 374.997C590.5 370.24 592.1 365.382 593.702 360.481C595.298 355.598 596.9 350.665 598.658 345.852C605.709 326.555 615.536 308.479 639.457 299.954C650.766 295.925 661.976 296.312 672.816 297.334C683.825 298.372 694.243 300.018 704.948 299.021C724.43 297.204 744.303 291.949 765.036 287.795Z" stroke="white" stroke-width="6.03759" stroke-miterlimit="10"/>
<path d="M761.825 297.308C781.887 293.093 802.543 290.092 823.348 293.169L823.347 293.17C852.95 297.534 881.122 311.547 906.647 329.041C929.483 344.625 951.125 363.661 966.124 387.093C979.126 407.406 987.957 429.381 995.522 451.751C1003.17 474.356 1009.34 496.744 1017.37 519.108L1018.1 521.127C1025.68 541.971 1034.69 562.374 1043.71 582.875C1073.77 651.071 1103.42 717.028 1097.35 791.472L1097.35 791.473C1096.82 798.004 1096.01 804.476 1094.93 810.881V810.882C1082.49 884.651 1033.53 952.434 970.693 994.991L969.206 995.991C940.471 1015.2 909.755 1031.09 879.673 1046.71C849.534 1062.37 820.043 1077.76 793.456 1096.07L793.455 1096.07C779.168 1105.95 765.741 1116.41 752.252 1126.82C738.785 1137.21 725.265 1147.54 710.906 1157.06C663.507 1188.47 604.32 1206.73 544.685 1202.17H544.684C485.051 1197.6 426.781 1171.39 383.224 1129.58C357.933 1105.3 336.203 1074.59 330.444 1039.94L330.208 1038.46C325.448 1007.5 333.216 978.048 343.896 948.873L344.956 946C356.002 916.361 369.497 888.166 375.829 858.277C381.588 830.735 380.754 803.219 377.579 777.414V777.413C372.13 733.085 362.181 691.63 340.845 659.692C339.618 657.857 338.286 656.056 336.89 654.121C335.514 652.215 334.098 650.209 332.816 648.097C330.243 643.858 328.12 639.05 327.796 633.321L327.797 633.32C327.299 624.846 330.832 616.443 334.44 609.241C359.509 559.027 405.302 521.166 451.453 490.82C467.868 480.026 487.798 470.183 507.271 459.902C526.854 449.562 546.059 438.741 561.513 425.859L561.521 425.853C567.718 420.719 573.239 415.242 577.892 409.32L577.898 409.311C583.821 401.832 587.883 393.154 591.315 383.922C593.031 379.308 594.575 374.596 596.121 369.84C597.661 365.104 599.207 360.315 600.902 355.642C607.697 336.91 617.149 319.302 640.141 310.837L641.162 310.473C651.711 306.843 662.173 307.117 672.282 307.948C682.882 308.819 692.893 310.26 703.165 309.106C722.227 306.966 741.583 301.561 761.825 297.308Z" stroke="white" stroke-width="6.03759" stroke-miterlimit="10"/>
<path d="M758.621 306.819C778.179 302.506 798.323 299.467 818.67 302.462L818.671 302.461C847.636 306.718 875.225 320.47 900.217 337.672C922.547 352.972 943.691 371.671 958.401 394.582C971.213 414.533 980.041 436.075 987.633 458.009C991.428 468.974 994.927 480.077 998.452 491.127C1001.98 502.193 1005.54 513.217 1009.48 524.102H1009.48C1017.15 545.28 1026.25 566.006 1035.29 586.863L1038.02 593.158C1066.19 658.149 1092.17 721.48 1085.92 792.333L1085.92 792.334C1085.36 798.745 1084.52 805.1 1083.44 811.393L1083.43 811.397C1070.75 884.446 1022.3 951.76 959.703 993.41C931.701 1012.04 901.78 1027.4 872.453 1042.43C843.07 1057.5 814.3 1072.24 788.304 1089.7C774.338 1099.13 761.187 1109.08 747.982 1118.98C735.623 1128.24 723.223 1137.45 710.179 1146.02L707.561 1147.73C661.51 1177.51 604.263 1194.88 546.571 1190.24L546.57 1190.24C488.876 1185.59 432.546 1160.14 390.327 1119.71L390.326 1119.71C365.979 1096.39 344.982 1067 338.768 1033.83L338.482 1032.25C333.173 1001.51 340.515 972.226 350.896 943.214H350.896C361.665 913.136 375.388 884.748 381.943 854.618C387.708 827.762 387.26 800.957 384.603 775.797V775.796C380.047 732.584 371.496 692.17 351.545 660.97C350.408 659.194 349.164 657.448 347.854 655.574C346.565 653.727 345.231 651.781 344.024 649.734C341.601 645.622 339.601 640.957 339.341 635.399L339.342 635.398C338.931 627.185 342.39 619.058 345.911 612.093L346.487 610.957C371.048 562.951 414.989 526.528 459.175 497.129C475.044 486.568 494.265 476.908 513.022 466.834C531.889 456.702 550.371 446.113 565.246 433.557L565.254 433.55C571.215 428.554 576.525 423.219 581.002 417.466L581.009 417.458C586.702 410.197 590.615 401.787 593.922 392.841C595.575 388.37 597.063 383.804 598.554 379.195C600.038 374.604 601.527 369.961 603.158 365.428C609.696 347.263 618.774 330.124 640.838 321.72C651.315 317.727 661.724 317.866 671.753 318.557C681.943 319.259 691.546 320.494 701.387 319.192L703.136 318.952C721.213 316.381 739.487 311.038 758.621 306.819Z" stroke="white" stroke-width="6.03759" stroke-miterlimit="10"/>
<path d="M755.416 316.326C774.475 311.922 794.11 308.853 814.004 311.776L814.003 311.777C842.317 315.913 869.332 329.411 893.79 346.323H893.789C915.605 361.338 936.256 379.697 950.677 402.085C963.298 421.67 972.123 442.781 979.738 464.281C983.545 475.03 987.063 485.912 990.595 496.75C994.131 507.602 997.683 518.418 1001.58 529.107H1001.58C1009.19 549.919 1018.11 570.303 1026.87 590.864L1029.52 597.068C1056.78 661.122 1081.11 723.633 1074.48 793.224C1073.89 799.523 1073.03 805.761 1071.93 811.938V811.941C1059.1 883.688 1011.85 950.04 950.191 990.849C922.921 1008.9 893.796 1023.73 865.225 1038.18C836.597 1052.66 808.55 1066.74 783.143 1083.37C769.497 1092.34 756.623 1101.78 743.703 1111.16C731.609 1119.94 719.484 1128.67 706.758 1136.82L704.204 1138.44C659.496 1166.6 604.196 1183.06 548.448 1178.34H548.447C492.7 1173.6 438.302 1148.93 397.429 1109.87C373.244 1086.76 352.43 1057.55 346.514 1024.58L346.27 1023.18C341.342 993.711 348.123 965.529 357.888 937.585C362.976 923.025 368.943 908.547 374.368 894.259C379.822 879.896 384.788 865.58 388.048 850.987C393.821 824.806 393.759 798.709 391.619 774.2L391.618 774.199C387.943 732.091 380.795 692.726 362.228 662.265V662.264C361.183 660.549 360.026 658.86 358.804 657.046C357.6 655.26 356.348 653.374 355.216 651.391C352.941 647.406 351.062 642.881 350.87 637.493V637.492C350.563 629.548 353.948 621.687 357.377 614.958C381.191 568.04 423.982 532.358 466.889 503.453L468.334 502.488C483.371 492.536 501.293 483.343 518.771 473.785C536.922 463.86 554.68 453.501 568.977 441.27L568.983 441.263C574.711 436.395 579.808 431.211 584.109 425.622L584.116 425.615C589.577 418.57 593.337 410.428 596.52 401.767C598.11 397.438 599.543 393.018 600.978 388.555C602.406 384.11 603.838 379.612 605.406 375.219C611.688 357.619 620.393 340.948 641.524 332.605C651.585 328.634 661.593 328.643 671.216 329.165C680.997 329.697 690.19 330.725 699.597 329.28L701.308 329.008C718.987 326.122 736.75 320.64 755.416 316.326Z" stroke="white" stroke-width="6.03759" stroke-miterlimit="10"/>
<path d="M752.214 325.829C770.767 321.329 789.881 318.227 809.312 321.061L809.311 321.062C836.978 325.091 863.408 338.325 887.338 354.944C908.652 369.677 928.799 387.699 942.938 409.567C955.365 428.789 964.186 449.466 971.826 470.532C975.646 481.063 979.182 491.724 982.721 502.349C986.264 512.988 989.81 523.596 993.672 534.091L995.099 537.919C1002.3 557.031 1010.46 575.84 1018.43 594.838L1020.99 600.95C1047.36 664.056 1070.03 725.746 1063.02 794.068L1063.03 794.069C1062.4 800.247 1061.52 806.37 1060.41 812.439L1060.41 812.441C1047.54 882.343 1002.09 947.262 942.085 987.311L940.665 988.253C914.13 1005.73 885.802 1020.03 857.985 1033.89C830.114 1047.78 802.789 1061.2 777.971 1076.99L777.97 1076.99C764.645 1085.51 752.049 1094.44 739.414 1103.31C726.798 1112.17 714.154 1120.96 700.838 1129.11C657.48 1155.64 604.114 1171.21 550.311 1166.4H550.31C497.35 1161.66 445.684 1138.43 406.378 1101.76L404.516 1100C380.887 1077.47 360.528 1049.02 354.536 1016.89C349.09 987.678 355.421 959.692 364.879 931.929C369.733 917.67 375.463 903.533 380.727 889.563C386.014 875.53 390.876 861.559 394.145 847.334C399.934 821.829 400.244 796.438 398.628 772.578L398.358 768.743C395.477 729.2 389.558 692.348 372.908 663.533V663.532C371.953 661.88 370.884 660.249 369.749 658.497C368.632 656.772 367.461 654.944 366.404 653.025C364.281 649.169 362.53 644.788 362.4 639.579L362.391 638.859C362.391 631.425 365.601 624.105 368.842 617.811C392.032 572.543 433.312 537.951 474.6 509.771C489.381 499.68 507.185 490.387 524.512 480.728C541.945 471.011 558.98 460.882 572.698 448.976L572.708 448.968C578.202 444.242 583.076 439.192 587.213 433.774C592.433 426.935 596.038 419.055 599.094 410.676C600.621 406.489 601.998 402.215 603.377 397.898C604.75 393.599 606.128 389.247 607.635 384.996C613.668 367.968 622.012 351.782 642.207 343.499L642.208 343.498C651.855 339.545 661.463 339.42 670.681 339.774C680.053 340.134 688.836 340.957 697.81 339.376C715.667 336.227 733.429 330.385 752.214 325.829Z" stroke="white" stroke-width="6.03759" stroke-miterlimit="10"/>
<path d="M749.013 335.329C767.062 330.737 785.657 327.608 804.635 330.361L804.634 330.362C831.663 334.276 857.511 347.249 880.907 363.577L882.854 364.94C902.939 379.133 921.805 396.377 935.222 417.055C959.597 454.614 970.582 498.112 985.791 539.083L987.203 542.842C994.323 561.617 1002.3 580.111 1010.01 598.826L1012.49 604.847C1037.96 667.017 1058.97 727.888 1051.6 794.945C1050.93 801.003 1050.03 807.016 1048.91 812.967V812.971C1035.8 882.12 990.93 946.558 931.16 985.686C905.357 1002.58 877.822 1016.36 850.76 1029.63C823.644 1042.93 797.042 1055.69 772.817 1070.63C759.807 1078.7 747.488 1087.13 735.138 1095.49C723.578 1103.31 712 1111.07 699.908 1118.35L697.483 1119.8C655.484 1144.71 604.052 1159.38 552.193 1154.49H552.192C500.34 1149.58 449.809 1126.46 411.626 1090.15H411.625C388.546 1068.19 368.643 1040.49 362.575 1009.21C357.061 980.759 362.89 953.42 371.879 926.282C376.502 912.324 381.997 898.518 387.1 884.869C392.222 871.165 396.98 857.538 400.257 843.679C406.055 818.855 406.751 794.17 405.652 770.952C403.762 731.074 399.404 693.839 383.597 664.803L383.267 664.208C382.484 662.818 381.618 661.429 380.701 659.949C379.671 658.285 378.585 656.516 377.605 654.663C375.634 650.932 374.007 646.692 373.938 641.658V640.964C374.035 633.799 377.154 626.749 380.307 620.674C402.865 577.055 442.643 543.545 482.312 516.089C496.549 506.233 513.63 497.11 530.238 487.651C546.949 478.134 563.263 468.235 576.432 456.68C581.679 452.069 586.355 447.182 590.312 441.932L590.775 441.309C595.518 434.833 598.849 427.443 601.689 419.601C603.155 415.556 604.477 411.428 605.8 407.256C607.117 403.103 608.439 398.897 609.882 394.785C615.659 378.323 623.628 362.607 642.888 354.386H642.889C652.115 350.451 661.323 350.19 670.136 350.374C679.099 350.56 687.476 351.18 696.014 349.467L697.634 349.135C705.739 347.44 713.912 345.205 722.203 342.832C731.013 340.311 739.995 337.623 749.013 335.329Z" stroke="white" stroke-width="6.03759" stroke-miterlimit="10"/>
<path d="M745.815 344.819C763.36 340.139 781.434 336.992 799.953 339.675L799.952 339.676C826.338 343.484 851.612 356.196 874.476 372.234H874.475C894.777 386.399 913.931 403.745 927.49 424.566C951.493 461.407 962.823 503.885 977.889 544.096L979.287 547.788C986.332 566.229 994.115 584.391 1001.58 602.837L1003.97 608.766C1028.54 669.991 1047.9 730.042 1040.15 795.829L1040.15 795.83C1039.46 801.773 1038.53 807.67 1037.4 813.506L1037.4 813.509C1024.15 881.353 980.466 944.832 921.642 983.119C896.574 999.435 869.835 1012.69 843.527 1025.37C817.164 1038.08 791.282 1050.19 767.643 1064.29C754.955 1071.91 742.915 1079.82 730.854 1087.66C718.808 1095.5 706.748 1103.25 694.119 1110.49C653.486 1133.78 603.982 1147.54 554.069 1142.57H554.068C504.164 1137.58 455.567 1115.23 418.729 1080.29L418.729 1080.29C396.206 1058.91 376.759 1031.97 370.615 1001.52L370.361 1000.23C365.193 973.008 370.483 946.736 378.878 920.636V920.635C383.272 906.977 388.539 893.498 393.479 880.172C398.436 866.797 403.089 853.516 406.37 840.025C412.171 815.872 413.253 791.892 412.672 769.322V769.321C411.679 730.548 408.715 694.399 394.282 666.057V666.056C393.504 664.532 392.611 663.021 391.651 661.392C390.707 659.79 389.703 658.08 388.8 656.29C386.98 652.685 385.481 648.584 385.477 643.725V643.724C385.469 636.586 388.612 629.554 391.781 623.519C413.714 581.55 451.974 549.132 490.03 522.401L491.321 521.501C504.743 512.223 520.588 503.553 535.984 494.591C551.978 485.281 567.57 475.612 580.16 464.382H580.161C585.18 459.909 589.644 455.164 593.419 450.084C598.182 443.677 601.488 436.33 604.296 428.521C605.699 424.618 606.965 420.636 608.232 416.61C609.494 412.603 610.76 408.543 612.14 404.571C617.66 388.678 625.252 373.434 643.573 365.276C652.38 361.355 661.186 360.951 669.595 360.963C678.15 360.975 686.117 361.395 694.222 359.562L695.804 359.197C703.718 357.341 711.679 354.987 719.748 352.525C728.324 349.907 737.047 347.159 745.815 344.819Z" stroke="white" stroke-width="6.03759" stroke-miterlimit="10"/>
<path d="M742.618 354.305C759.658 349.534 777.207 346.365 795.263 348.96L795.262 348.961C821 352.655 845.69 365.104 868.019 380.849L869.871 382.161C888.978 395.81 906.884 412.381 919.746 432.046V432.047C943.369 468.177 955.043 509.622 969.973 549.081L971.357 552.708C978.325 570.822 985.911 588.63 993.133 606.822H993.132C1017.94 669.132 1037.08 730.098 1028.69 796.694L1028.7 796.695C1027.97 802.522 1027.02 808.303 1025.88 814.031V814.033C1012.48 880.578 970.004 943.104 912.116 980.544C887.783 996.284 861.837 1009.01 836.282 1021.1C810.673 1033.22 785.516 1044.67 762.464 1057.93L762.465 1057.93C750.093 1065.1 738.33 1072.5 726.551 1079.83C714.789 1087.16 703.024 1094.4 690.738 1101.18C651.473 1122.86 603.896 1135.7 555.93 1130.64H555.928C507.972 1125.56 461.302 1103.99 425.818 1070.43C403.837 1049.64 384.853 1023.44 378.634 993.838L378.377 992.578C373.128 966.112 377.916 940.479 385.856 914.991V914.99C390.017 901.639 395.054 888.487 399.831 875.484C404.624 862.438 409.172 849.5 412.463 836.375C418.273 812.894 419.736 789.625 419.68 767.695C419.58 730.022 418.014 694.982 404.954 667.311V667.31C404.264 665.851 403.458 664.399 402.585 662.832C401.728 661.292 400.806 659.641 399.979 657.917C398.312 654.44 396.94 650.48 397.002 645.796V645.793C397.099 638.938 400.164 632.178 403.24 626.378C424.541 586.062 461.296 554.726 497.732 528.721C510.876 519.336 526.536 510.58 541.714 501.537C556.99 492.435 571.86 482.997 583.873 472.092L583.875 472.091C588.659 467.755 592.911 463.161 596.511 458.245C601.044 452.054 604.201 444.972 606.885 437.446C608.226 433.685 609.437 429.848 610.648 425.968C611.854 422.106 613.064 418.19 614.38 414.359C619.644 399.031 626.861 384.262 644.241 376.169L645.028 375.813C653.155 372.231 661.285 371.709 669.039 371.551C677.185 371.386 684.746 371.604 692.419 369.659C700.657 367.57 708.918 364.937 717.29 362.213C725.633 359.499 734.101 356.69 742.618 354.305Z" stroke="white" stroke-width="6.03759" stroke-miterlimit="10"/>
<path d="M690.621 379.714C721.093 364.905 755.916 353.31 790.577 358.29L790.578 358.289C815.673 361.86 839.788 374.057 861.582 389.511L863.388 390.796C882.006 404.168 899.442 420.405 912.023 439.564C935.28 474.974 947.297 515.4 962.084 554.099C969.4 573.208 977.234 591.62 984.713 610.832L985.83 613.706C1009.19 674.045 1025.89 733.323 1017.26 797.589L1017.26 797.588C1016.5 803.299 1015.53 808.962 1014.37 814.568L1014.37 814.572C1000.84 879.81 959.556 941.393 902.604 977.986C879.01 993.148 853.858 1005.35 829.056 1016.85C804.197 1028.38 779.762 1039.17 757.298 1051.59C745.245 1058.3 733.761 1065.2 722.269 1072.02C710.792 1078.83 699.32 1085.56 687.375 1091.89C649.486 1111.94 603.823 1123.87 557.81 1118.73H557.809C511.796 1113.57 467.06 1092.77 432.923 1060.58C411.497 1040.37 392.977 1014.93 386.676 986.178C380.943 960.027 385.252 934.639 392.856 909.362L393.602 906.917C397.379 894.709 401.873 882.69 406.198 870.803C410.826 858.085 415.271 845.492 418.57 832.732C424.391 809.929 426.242 787.356 426.703 766.072C427.491 729.496 427.316 695.573 415.633 668.564L415.632 668.561C415.031 667.168 414.314 665.778 413.528 664.273C412.759 662.798 411.92 661.205 411.171 659.547C409.658 656.197 408.414 652.378 408.543 647.872C408.729 641.282 411.719 634.799 414.71 629.236C435.384 590.573 470.627 560.328 505.442 535.05L506.63 534.194C518.975 525.363 533.443 517.051 547.453 508.492C562.011 499.598 576.16 490.392 587.6 479.812H587.601C592.152 475.604 596.192 471.16 599.616 466.407L599.617 466.406C603.924 460.432 606.931 453.618 609.491 446.376C610.77 442.757 611.927 439.065 613.082 435.332C614.232 431.615 615.385 427.845 616.638 424.154C621.645 409.394 628.482 395.099 644.919 387.072C652.745 383.25 660.48 381.809 668.148 381.108C671.966 380.759 675.812 380.59 679.621 380.414C683.281 380.244 686.924 380.063 690.621 379.714Z" stroke="white" stroke-width="6.03759" stroke-miterlimit="10"/>
<path d="M688.81 389.816C718.314 374.202 752.158 362.764 785.923 367.553L787.068 367.721C811.11 371.392 834.249 383.192 855.179 398.12H855.178C873.966 411.447 891.624 427.771 904.319 447.023L905.384 448.653C927.589 482.944 939.792 521.698 954.209 559.054C961.299 577.397 969.254 596.266 976.308 614.791H976.307C999.366 675.149 1015 734.459 1005.84 798.429C1005.04 804.02 1004.05 809.566 1002.88 815.066L1002.88 815.069C989.217 879.006 949.128 939.638 893.112 975.383C870.248 989.976 845.889 1001.66 821.84 1012.57C797.731 1023.5 774.021 1033.63 752.139 1045.22L752.14 1045.22C728.874 1057.63 707.06 1070.91 684.019 1082.56C647.513 1101 603.766 1112.01 559.701 1106.79H559.699C515.637 1101.55 472.837 1081.53 440.047 1050.7C419.497 1031.38 401.672 1007.16 395.037 979.789L394.729 978.483C388.928 953.108 392.726 928.362 399.868 903.706L400.57 901.32C404.13 889.402 408.414 877.683 412.587 866.1C417.05 853.711 421.39 841.465 424.695 829.076L425.232 827.002C430.668 805.573 432.798 784.425 433.747 764.422L434.057 757.802C435.546 724.869 436.003 694.516 426.337 669.786V669.785C425.82 668.461 425.189 667.135 424.489 665.693C423.805 664.283 423.049 662.749 422.378 661.157C421.019 657.934 419.908 654.256 420.104 649.928C420.387 643.614 423.308 637.404 426.204 632.08C446.238 595.077 479.976 565.917 513.17 541.366C525.221 532.453 539.459 524.066 553.206 515.44C567.046 506.756 580.474 497.781 591.337 487.526C595.646 483.455 599.477 479.153 602.728 474.568C606.804 468.808 609.661 462.259 612.096 455.3C613.312 451.823 614.412 448.276 615.512 444.688C616.606 441.117 617.702 437.491 618.891 433.94C623.641 419.749 630.101 405.933 645.591 397.971C652.988 394.169 660.296 392.59 667.555 391.715C671.168 391.28 674.808 391.015 678.418 390.748C681.872 390.492 685.312 390.23 688.81 389.816Z" stroke="white" stroke-width="6.03759" stroke-miterlimit="10"/>
<path d="M686.992 399.922C715.524 383.501 748.394 372.225 781.241 376.867L781.24 376.868C805.053 380.219 828.01 391.892 848.736 406.764L850.446 407.995C868.083 420.811 884.564 436.38 896.589 454.524C919.104 488.493 931.81 526.868 946.313 564.058C953.393 582.178 961.041 600.426 967.882 618.797H967.881C990.062 678.175 1003.93 736.658 994.396 799.31C993.566 804.792 992.555 810.222 991.371 815.607L991.37 815.609C977.562 878.229 938.673 937.919 883.593 972.817C861.466 986.833 837.9 997.987 814.601 1008.31C791.234 1018.66 768.249 1028.13 746.942 1038.88L746.941 1038.88C724.252 1050.42 703.045 1062.51 680.632 1073.26V1073.26C645.519 1090.11 603.68 1100.18 561.563 1094.88H561.562C519.451 1089.55 478.581 1070.31 447.145 1040.86C426.817 1021.81 409.211 997.876 402.758 970.818C396.881 946.213 400.18 922.115 406.853 898.081L406.854 898.08C410.309 885.641 414.658 873.449 418.945 861.419C423.246 849.353 427.484 837.45 430.8 825.421C436.643 803.962 439.263 782.79 440.769 762.789C443.354 728.399 445.936 696.784 437.009 671.017L437.008 671.016C436.574 669.763 436.028 668.501 435.415 667.123C434.816 665.778 434.144 664.301 433.551 662.775C432.347 659.68 431.368 656.142 431.632 651.995C432.013 645.954 434.848 640.027 437.661 634.934C457.068 599.582 489.29 571.507 520.861 547.69L521.946 546.878C533.212 538.5 546.304 530.546 558.929 522.391C572.052 513.916 584.759 505.173 595.046 495.242L595.805 494.502C599.574 490.787 602.94 486.88 605.815 482.736L605.816 482.735C609.668 477.19 612.377 470.903 614.688 464.226C615.844 460.89 616.889 457.489 617.933 454.046C618.971 450.62 620.012 447.139 621.137 443.728C625.63 430.105 631.71 416.768 646.245 408.875L646.898 408.526C653.644 404.986 660.31 403.343 666.947 402.327C670.357 401.805 673.792 401.444 677.204 401.086C680.455 400.744 683.693 400.401 686.992 399.922Z" stroke="white" stroke-width="6.03759" stroke-miterlimit="10"/>
<path d="M685.178 410.033C712.736 392.803 744.633 381.687 776.563 386.159C799.732 389.403 822.115 400.824 842.307 415.397L843.97 416.601C861.118 429.139 877.121 444.376 888.864 462.012C911.003 495.257 924.055 532.615 938.417 569.048C945.44 586.822 952.871 604.687 959.454 622.78L960.445 625.517C981.13 682.99 992.724 739.796 982.953 800.179L982.954 800.18C982.094 805.54 981.055 810.86 979.864 816.125L979.863 816.129C965.915 877.443 928.231 936.193 874.078 970.237C852.689 983.684 829.916 994.312 807.367 1004.04C784.744 1013.8 762.498 1022.6 741.77 1032.51C719.668 1043.18 699.032 1054.1 677.251 1063.95C643.54 1079.19 603.603 1088.33 563.438 1082.95L563.437 1082.95C523.277 1077.54 484.337 1059.07 454.256 1030.99C434.477 1012.53 417.335 989.346 410.807 963.133V963.132C404.862 939.291 407.648 915.843 413.858 892.429C417.076 880.298 421.195 868.426 425.318 856.72C429.454 844.978 433.588 833.42 436.915 821.753C442.77 800.961 445.766 780.496 447.798 761.13C451.287 727.844 455.228 697.412 447.693 672.224V672.222C447.34 671.038 446.877 669.84 446.349 668.525C445.835 667.246 445.247 665.825 444.732 664.365C443.686 661.397 442.843 658.002 443.175 654.042C443.655 648.288 446.419 642.636 449.137 637.783C467.908 604.094 498.615 577.098 528.572 554.016C539.528 545.574 552.345 537.554 564.662 529.346C577.067 521.078 589.054 512.567 598.766 502.961L598.769 502.958C602.615 499.163 606.023 495.155 608.918 490.901C616.278 480.077 619.06 466.865 623.39 453.52C627.626 440.465 633.327 427.61 646.906 419.79C653.442 416.025 659.894 414.167 666.336 412.941C669.542 412.331 672.772 411.873 675.986 411.424C679.036 410.997 682.074 410.575 685.178 410.033Z" stroke="white" stroke-width="6.03759" stroke-miterlimit="10"/>
<path d="M683.35 420.157C709.938 402.106 740.871 391.149 771.889 395.481L771.888 395.482C794.415 398.612 816.218 409.773 835.877 424.057H835.876C853.144 436.535 869.31 451.843 881.14 469.521C902.902 502.048 916.3 538.377 930.521 574.06L933.14 580.596C939.27 595.859 945.504 611.214 951.027 626.796C971.459 684.24 981.816 741.06 971.51 801.08C970.614 806.33 969.553 811.527 968.349 816.682V816.685C954.268 876.693 917.783 934.511 864.557 967.693C843.905 980.567 821.922 990.669 800.123 999.808C778.227 1008.99 756.738 1017.11 736.569 1026.19L736.57 1026.19C715.061 1035.97 694.996 1045.73 673.851 1054.67C641.544 1068.33 603.503 1076.53 565.288 1071.05H565.286C527.082 1065.55 490.073 1047.87 461.347 1021.16C442.116 1003.28 425.44 980.845 418.829 955.486V955.485C412.816 932.417 415.095 909.617 420.843 886.821C423.825 874.993 427.717 863.437 431.677 852.055C435.65 840.636 439.678 829.426 443.017 818.118C448.885 797.991 452.271 778.224 454.823 759.501C457.009 743.472 459.434 728.164 460.541 713.637C461.646 699.135 461.41 685.671 458.367 673.444V673.442C458.091 672.328 457.71 671.195 457.266 669.944C456.835 668.733 456.329 667.366 455.894 665.975C455.005 663.136 454.302 659.883 454.706 656.109V656.108C455.292 650.642 457.966 645.272 460.602 640.649C478.743 608.613 507.934 582.711 536.267 560.359L537.247 559.59C547.428 551.663 559.142 544.067 570.383 536.318C582.072 528.259 593.339 519.978 602.476 510.696C606.092 507.021 609.292 503.168 612.012 499.078C618.916 488.687 621.57 476.087 625.641 463.313C629.62 450.824 634.939 438.455 647.555 430.712C659.42 423.425 671.395 422.646 683.35 420.157Z" stroke="white" stroke-width="6.03759" stroke-miterlimit="10"/>
<path d="M681.523 430.284C707.13 411.415 737.1 400.605 767.2 404.781L767.201 404.78C789.087 407.788 810.31 418.698 829.441 432.691H829.44C846.203 444.893 861.869 459.855 873.407 477.007C894.798 508.808 908.543 544.124 922.624 579.048C929.513 596.106 936.555 613.281 942.602 630.792L943.51 633.438C962.418 689.011 970.587 744.177 960.066 801.957C959.136 807.077 958.06 812.162 956.841 817.205V817.206C942.733 875.432 907.893 931.896 856.265 964.344L855.042 965.107C815.378 989.618 770.201 1003.49 731.377 1019.83L731.378 1019.83C710.471 1028.72 690.962 1037.34 670.456 1045.35C639.568 1057.43 603.417 1064.67 567.156 1059.11H567.155C531.465 1053.62 496.918 1037.15 469.74 1012.46L468.451 1011.28C449.769 993.979 433.559 972.309 426.873 947.797C420.792 925.503 422.557 903.352 427.841 881.174V881.173C430.588 869.654 434.253 858.414 438.051 847.356C441.863 836.257 445.786 825.4 449.134 814.448C455.016 794.991 458.786 775.921 461.867 757.831L461.868 757.83C464.509 742.337 467.481 727.639 469.216 713.596C470.945 699.594 471.394 686.564 469.066 674.614C468.864 673.574 468.562 672.507 468.201 671.322C467.853 670.179 467.432 668.866 467.076 667.545C466.348 664.836 465.788 661.729 466.26 658.146C466.936 652.957 469.539 647.875 472.078 643.489C489.582 613.121 517.255 588.291 543.973 566.681C553.827 558.71 565.223 551.057 576.11 543.268C587.081 535.42 597.63 527.372 606.192 518.414C609.571 514.872 612.566 511.17 615.102 507.247L615.103 507.244C621.553 497.288 624.079 485.299 627.889 473.095C631.552 461.361 636.393 449.667 647.655 441.997L648.196 441.634C659.226 434.373 670.297 433.055 681.523 430.284Z" stroke="white" stroke-width="6.03759" stroke-miterlimit="10"/>
<path d="M679.689 440.415C704.311 420.724 733.325 410.066 762.523 414.073L762.524 414.072C783.765 416.973 804.411 427.622 823.008 441.322L824.528 442.448C840.205 454.158 854.786 468.386 865.682 484.494C886.693 515.565 900.787 549.87 914.728 584.036C921.553 600.727 928.396 617.569 934.176 634.788L935.042 637.389C953.057 692.011 959.52 746.361 948.621 802.834L948.622 802.835C947.662 807.842 946.558 812.81 945.333 817.738L945.332 817.742C931.088 874.668 897.441 930.207 846.728 961.8L845.526 962.542C807.304 985.942 763.864 998.816 726.172 1013.49C705.874 1021.48 686.91 1028.97 667.046 1036.05V1036.05C637.588 1046.56 603.32 1052.83 569.015 1047.18H569.014C534.714 1041.52 501.57 1025.41 475.557 1001.43V1001.43C457.415 984.718 441.672 963.795 434.91 940.14L434.627 939.132C428.794 917.948 430.086 896.782 434.831 875.558C439.811 853.282 448.592 831.744 455.237 810.797C461.135 792.001 465.292 773.626 468.902 756.176L469.487 753.379C472.434 739.447 475.655 726.307 477.872 713.581C480.224 700.081 481.357 687.482 479.757 675.789V675.788C479.464 673.642 478.858 671.913 478.242 669.112C477.675 666.534 477.263 663.572 477.804 660.182V660.181C478.586 655.288 481.095 650.493 483.553 646.336C500.425 617.627 526.569 593.886 551.669 573.014C560.967 565.282 571.651 557.812 581.823 550.233C592.076 542.594 601.908 534.777 609.897 526.142C613.042 522.739 615.828 519.178 618.192 515.421C624.186 505.891 626.583 494.507 630.133 482.876C633.597 471.523 638.152 460.14 648.828 452.566C659.014 445.337 669.175 443.478 679.689 440.415Z" stroke="white" stroke-width="6.03759" stroke-miterlimit="10"/>
<path d="M677.851 450.559C701.485 430.038 729.55 419.525 757.848 423.372L757.847 423.373C778.454 426.161 798.52 436.55 816.584 449.961H816.583C832.337 461.604 847.009 475.881 857.962 491.988C878.591 522.328 893.028 555.617 906.836 589.032C913.588 605.351 920.25 621.858 925.755 638.785C943.547 693.308 948.632 747.669 937.182 803.71L937.183 803.711C936.187 808.6 935.062 813.45 933.822 818.262L933.821 818.265C919.328 874.325 886.475 929.372 836.009 959.963C799.231 982.256 757.52 994.128 720.956 1007.14L720.957 1007.14C701.276 1014.23 682.836 1020.61 663.623 1026.75L663.624 1026.75C635.611 1035.7 603.215 1040.98 570.868 1035.25H570.867C538.526 1029.51 507.317 1014.17 482.661 991.572C465.067 975.446 449.792 955.275 442.955 932.47L442.668 931.497C436.755 911.067 437.539 890.541 441.827 869.923H441.828C446.348 848.204 454.666 827.407 461.351 807.131L462.443 803.737C467.826 786.791 472.064 770.263 475.947 754.493C479.52 739.978 483.508 726.709 486.515 713.542C489.483 700.546 491.301 688.373 490.453 676.924V676.921C490.308 674.942 489.844 673.274 489.408 670.637C489.004 668.194 488.742 665.383 489.35 662.193V662.191C490.229 657.591 492.663 653.086 495.024 649.17C511.256 622.128 535.88 599.47 559.361 579.344C568.109 571.848 578.084 564.562 587.54 557.196C597.075 549.769 606.188 542.184 613.604 533.869C616.517 530.602 619.094 527.19 621.286 523.593C626.823 514.497 629.092 503.715 632.379 492.658C635.585 481.871 639.756 470.988 649.451 463.509C658.795 456.302 668.036 453.921 677.851 450.559Z" stroke="white" stroke-width="6.03759" stroke-miterlimit="10"/>
<path d="M676.003 460.716C698.651 439.359 725.767 428.978 753.155 432.657C773.113 435.338 792.606 445.469 810.137 458.59H810.136C825.385 469.95 839.556 483.888 850.216 499.466C870.477 529.073 885.257 561.357 898.925 594.012C905.613 609.97 912.079 626.15 917.316 642.778L918.1 645.287C934.334 698.006 937.373 750.735 925.73 804.59C924.835 808.764 923.845 812.914 922.771 817.031L922.307 818.795C907.8 873.105 876.529 926.83 827.644 956.691L826.485 957.392C791.168 978.57 751.164 989.454 715.726 1000.8C699.047 1006.21 683.247 1010.94 667.126 1015.51L660.192 1017.45C633.626 1024.87 603.104 1029.14 572.72 1023.33H572.718C542.338 1017.5 513.059 1002.95 489.769 981.72V981.719C472.715 966.178 457.914 946.762 450.996 924.81C444.705 904.844 444.922 884.636 448.82 864.305L449.211 862.326C453.367 841.911 460.964 822.447 467.468 803.466C473.393 785.993 478.327 769.008 483.001 752.828V752.827C484.988 745.955 487.14 739.231 489.233 732.688C491.332 726.13 493.37 719.759 495.157 713.521C498.736 701.027 501.241 689.276 501.172 678.063V678.06C501.162 676.235 500.841 674.634 500.584 672.159C500.344 669.853 500.236 667.2 500.91 664.215C501.878 659.916 504.223 655.7 506.499 652.02C522.094 626.646 545.188 605.064 567.053 585.684C575.24 578.427 584.505 571.321 593.244 564.168C602.061 556.952 610.461 549.6 617.306 541.608L617.308 541.605C619.991 538.479 622.353 535.217 624.374 531.778C629.46 523.11 631.601 512.921 634.624 502.438C637.571 492.216 641.356 481.839 650.066 474.467L650.067 474.466C658.557 467.284 666.883 464.383 676.003 460.716Z" stroke="white" stroke-width="6.03759" stroke-miterlimit="10"/>
<path d="M674.156 470.894C695.805 448.694 721.979 438.436 748.485 441.964L748.484 441.965C767.806 444.531 786.716 454.4 803.712 467.229L805.091 468.275C819.303 479.159 832.454 492.377 842.497 506.959V506.96C862.372 535.829 877.507 567.104 891.035 599.006L892.272 601.933C898.438 616.585 904.239 631.471 908.897 646.784C924.932 699.363 926.501 752.1 914.291 805.475L914.29 805.474C913.23 810.13 912.057 814.744 910.798 819.323L910.797 819.327C896.042 872.739 865.609 925.981 816.967 954.814C783.108 974.88 744.797 984.766 710.494 994.444L710.493 994.443C692.058 999.712 674.657 1003.93 656.746 1008.14V1008.14C631.644 1014.04 602.982 1017.29 574.564 1011.39H574.562C546.591 1005.57 519.662 992.153 497.908 972.781L496.876 971.854C480.627 957.132 466.485 938.813 459.378 918.125L459.045 917.138C452.68 897.951 452.387 878.393 455.818 858.677C459.398 838.119 466.841 818.686 473.589 799.787C479.535 782.97 484.85 766.69 490.068 751.14C492.279 744.548 494.67 738.114 497.021 731.85C499.379 725.571 501.692 719.476 503.78 713.487C507.962 701.497 511.158 690.16 511.904 679.175V679.174C512.019 677.499 511.841 675.97 511.761 673.656C511.686 671.489 511.735 668.995 512.478 666.22L512.691 665.472C513.828 661.734 515.932 658.09 517.991 654.852C532.94 631.158 554.506 610.663 574.746 592.036H574.747C582.373 585.019 590.936 578.088 598.956 571.153C607.056 564.15 614.742 557.031 621.016 549.36C623.464 546.36 625.625 543.239 627.465 539.969C632.101 531.731 634.113 522.13 636.871 512.221C639.559 502.563 642.958 492.7 650.678 485.449C658.302 478.282 665.73 474.884 674.156 470.894Z" stroke="white" stroke-width="6.03759" stroke-miterlimit="10"/>
<path d="M672.319 481.117C695.943 462.14 717.785 447.844 743.784 451.256C762.466 453.708 780.804 463.327 797.266 475.866L798.597 476.886C812.32 487.498 824.991 500.375 834.749 514.444C854.251 542.567 869.735 572.846 883.123 603.987L884.346 606.846C890.431 621.16 896.057 635.739 900.458 650.779L901.157 653.198C915.599 704.012 915.216 755.129 902.829 806.352L902.83 806.353C901.736 810.887 900.547 815.391 899.273 819.859L899.272 819.861C884.385 871.95 855.177 924.302 807.434 952.244L807.433 952.243C775.044 971.202 738.426 980.093 705.253 988.092L705.254 988.093C687.443 992.451 670.544 995.615 653.276 998.835C629.639 1003.24 602.843 1005.44 576.396 999.462L576.395 999.461C550.36 993.557 525.334 980.908 504.944 962.867L503.977 962.004C488.26 947.858 474.58 930.279 467.417 910.43L467.081 909.484C460.65 891.071 459.838 872.164 462.803 853.061V853.06C465.905 833.1 472.907 814.323 479.69 796.119C485.657 779.987 491.375 764.353 497.121 749.458C501.949 736.945 507.649 724.782 512.362 713.44C517.139 701.947 521.032 691.019 522.642 680.269V680.266C522.874 678.722 522.844 677.253 522.938 675.109C523.028 673.086 523.235 670.763 524.038 668.209H524.039C525.2 664.521 527.364 660.897 529.466 657.684C543.772 635.677 563.794 616.255 582.422 598.386L583.753 597.118C590.453 590.777 597.8 584.435 604.638 578.146C612.02 571.356 618.995 564.469 624.699 557.114C626.916 554.251 628.871 551.277 630.54 548.165C634.728 540.355 636.608 531.335 639.099 522.001C641.527 512.902 644.538 503.559 651.266 496.446C654.801 492.708 658.481 490.201 662.039 487.968C665.652 485.7 668.973 483.805 672.318 481.117H672.319Z" stroke="white" stroke-width="6.03759" stroke-miterlimit="10"/>
<path d="M670.464 491.312C692.984 470.932 714 457.304 739.107 460.57L739.106 460.571C757.148 462.909 774.912 472.269 790.84 484.518C804.569 495.037 817.259 507.943 827.03 521.943L828.812 524.516C847.136 551.154 862.399 579.559 875.232 608.986H875.231C881.721 623.844 887.614 639.045 892.039 654.789C906.303 705.425 904.352 756.548 891.389 807.243C890.266 811.66 889.057 816.039 887.77 820.394L887.769 820.395C872.751 871.151 844.765 922.63 797.92 949.675C766.995 967.528 732.048 975.421 699.998 981.743L699.997 981.742C682.816 985.186 666.433 987.312 649.803 989.523C627.631 992.474 602.703 993.593 578.233 987.526H578.232C553.749 981.447 530.271 969.283 511.085 952.147C495.898 938.583 482.69 921.733 475.473 902.731L475.134 901.825C468.638 884.196 467.305 865.939 469.809 847.447L470.065 845.635C472.841 826.941 479.222 809.392 485.821 792.442C491.814 776.953 497.924 762.025 504.211 747.763L504.212 747.762C509.502 735.768 515.636 724.269 520.946 713.37C526.306 702.369 530.899 691.844 533.424 681.339L533.425 681.337C533.769 679.909 533.889 678.496 534.155 676.524C534.408 674.65 534.773 672.505 535.632 670.178L535.874 669.548C537.131 666.399 539.067 663.302 540.96 660.508C554.611 640.181 573.089 621.841 590.107 604.735C603.366 591.405 618.018 579.089 628.392 564.871L628.394 564.868C630.386 562.143 632.133 559.318 633.624 556.367L633.625 556.364C637.367 548.978 639.114 540.531 641.336 531.776C643.503 523.236 646.127 514.426 651.856 507.473L651.857 507.472C654.92 503.759 658.12 501.068 661.265 498.632C664.462 496.155 667.424 494.066 670.463 491.312L670.464 491.312Z" stroke="white" stroke-width="6.03759" stroke-miterlimit="10"/>
<path d="M669.602 500.505C690.515 479.255 710.596 466.807 734.434 469.863L734.433 469.864C751.844 472.087 769.03 481.191 784.426 493.152H784.425C797.642 503.384 809.851 515.924 819.306 529.415C838.092 556.017 854.233 584.349 867.339 613.964L868.534 616.687C874.465 630.322 879.725 644.3 883.621 658.787L884.235 661.115C896.879 710.026 893.071 759.546 879.945 808.125L879.944 808.124C878.786 812.424 877.549 816.692 876.257 820.926V820.929C861.117 870.35 834.344 920.958 788.397 947.098C758.948 963.85 725.668 970.747 694.743 975.379L694.744 975.38C678.187 977.908 662.309 979.022 646.308 980.198C625.592 981.73 602.538 981.726 580.054 975.579H580.053C557.545 969.419 536.008 958.052 518.194 942.284C503.297 929.103 490.389 912.682 483.18 894.169C476.622 877.332 474.731 859.721 476.8 841.844H476.799C478.909 823.064 485.089 805.567 491.937 788.775C497.948 773.938 504.455 759.694 511.289 746.07C517.035 734.618 523.594 723.719 529.489 713.275C535.426 702.756 540.729 692.631 544.219 682.405C544.672 681.07 544.95 679.71 545.38 677.912C545.793 676.187 546.314 674.229 547.227 672.132L547.228 672.13C548.554 669.087 550.522 666.073 552.447 663.33C565.443 644.705 582.369 627.441 597.777 611.101C609.866 598.274 622.868 586.203 632.079 572.647L632.08 572.644C633.842 570.056 635.384 567.37 636.707 564.578C640.008 557.61 641.615 549.729 643.563 541.554C645.467 533.569 647.701 525.302 652.44 518.532C655.02 514.846 657.732 511.976 660.46 509.335C663.267 506.618 665.825 504.38 668.604 501.524L669.602 500.505Z" stroke="white" stroke-width="6.03759" stroke-miterlimit="10"/>
<path d="M666.739 511.762C686.609 488.327 706.445 476.221 729.753 479.161C746.516 481.278 763.129 490.125 777.99 501.794C790.698 511.745 802.411 523.947 811.57 536.908H811.571C829.96 562.757 846.475 590.107 859.439 618.955L860.621 621.611C866.479 634.911 871.557 648.585 875.194 662.801L875.767 665.084C887.509 713.038 881.981 761.761 868.494 809.012L868.495 809.013C867.605 812.144 866.676 815.266 865.715 818.369L864.744 821.465C849.479 869.552 823.939 919.31 778.874 944.53C750.887 960.191 719.253 966.086 689.454 969.029L689.453 969.028C673.703 970.625 658.173 972.086 642.527 970.877V970.876C623.816 969.436 602.343 969.869 581.863 963.649L581.861 963.648C561.98 957.597 542.963 947.506 526.854 933.784L525.305 932.444C510.945 919.853 498.524 904.175 491.237 886.534V886.533C484.607 870.471 482.201 853.507 483.8 836.238C485.426 818.049 491.17 801.188 498.06 785.092C504.099 770.905 511.003 757.346 518.385 744.372C524.581 733.477 531.552 723.139 538.021 713.146C544.527 703.099 550.547 693.37 555.053 683.465L555.054 683.462C555.627 682.206 556.074 680.895 556.659 679.275C557.227 677.704 557.892 675.944 558.846 674.082V674.081C560.236 671.368 562.101 668.668 563.938 666.16L565.102 664.576C577.221 648.221 592.08 632.542 605.443 617.476V617.475C616.357 605.178 627.707 593.345 635.753 580.446C637.284 577.979 638.627 575.439 639.771 572.81L639.772 572.806C642.634 566.255 644.093 558.937 645.765 551.346C647.401 543.915 649.246 536.204 653.007 529.642L653.008 529.64C657.174 522.38 661.946 517.416 666.739 511.762Z" stroke="white" stroke-width="6.03759" stroke-miterlimit="10"/>
<path d="M664.883 522.014C683.153 496.958 702.684 485.687 725.08 488.476C741.213 490.478 757.247 499.068 771.574 510.448L772.717 511.361C784.487 520.861 795.279 532.372 803.863 544.411H803.862C821.848 569.507 838.732 595.877 851.555 623.953H851.554C857.848 637.723 863.174 651.949 866.784 666.816L867.314 669.054C878.161 716.06 870.912 763.994 857.058 809.916L857.057 809.918C856.136 812.962 855.192 815.99 854.22 819.006L853.238 822.018C837.85 868.758 813.548 917.692 769.356 941.977C742.838 956.553 712.846 961.437 684.169 962.675C670.773 963.276 657.712 962.731 644.776 961.919L639.239 961.558C621.375 960.351 602.152 958 583.666 951.703L583.664 951.702C565.131 945.38 547.472 935.638 532.426 922.598C519.02 910.979 507.401 896.6 500.001 880.46L499.298 878.893C492.606 863.621 489.677 847.315 490.802 830.649H490.803C491.949 813.058 497.256 796.815 504.191 781.412C510.259 767.877 517.543 754.996 525.495 742.68C532.123 732.333 539.493 722.514 546.538 712.964C553.612 703.374 560.363 694.051 565.919 684.53L565.92 684.528C566.622 683.327 567.247 682.066 567.981 680.612C568.701 679.188 569.503 677.625 570.495 676C571.948 673.611 573.715 671.225 575.451 668.963C587.065 653.802 600.948 638.591 613.109 623.865L613.11 623.864C622.847 612.078 632.547 600.508 639.438 588.256C640.745 585.93 641.878 583.533 642.856 581.05C645.277 574.911 646.577 568.149 647.966 561.143C649.33 554.262 650.786 547.115 653.596 540.789V540.787C656.819 533.538 660.545 527.961 664.883 522.014Z" stroke="white" stroke-width="6.03759" stroke-miterlimit="10"/>
<path d="M689.831 504.033C699.533 498.356 709.793 496.463 720.385 497.746H720.387C735.885 499.633 751.341 507.977 765.141 519.067L766.234 519.955C777.507 529.183 787.817 540.357 796.117 551.875C813.698 576.208 830.953 601.61 843.641 628.922C849.867 642.325 855.006 656.234 858.346 670.812C869.058 717.57 860.029 765.501 845.592 810.797H845.591C844.335 814.733 843.038 818.652 841.712 822.541V822.542C826.204 867.938 803.128 916.068 759.808 939.395L759.809 939.396C734.759 952.889 706.397 956.762 678.838 956.286V956.285C664.164 956.046 649.763 954.324 635.65 952.18H635.649C619.14 949.665 601.898 946.089 585.429 939.726L585.428 939.725C568.896 933.333 553.178 924.417 539.527 912.739H539.526C526.217 901.349 514.77 887.151 507.349 871.243V871.242C500.589 856.768 497.151 841.106 497.792 825.055C498.454 808.067 503.333 792.435 510.311 777.723C516.415 764.834 524.124 752.634 532.611 740.968C539.688 731.206 547.454 721.874 555.067 712.754C562.706 703.603 570.183 694.676 576.808 685.606V685.605C577.655 684.445 578.472 683.24 579.352 681.944C580.221 680.662 581.146 679.302 582.165 677.908L582.734 677.136C584.077 675.338 585.523 673.536 586.963 671.769C598.025 658.144 610.047 644.383 620.762 630.268L620.763 630.267C629.319 619.007 637.38 607.716 643.101 596.095L643.106 596.084C644.191 593.906 645.119 591.65 645.923 589.317L645.925 589.31H645.926C647.917 583.576 649.047 577.375 650.149 570.962C651.236 564.637 652.302 558.06 654.194 551.988C656.43 544.797 659.197 538.505 663.025 532.289L663.026 532.287C671.229 518.985 680.176 509.682 689.831 504.033Z" stroke="white" stroke-width="6.03759" stroke-miterlimit="10"/>
<path d="M691.341 510.564C702.75 505.458 714.869 505.742 726.662 509.466C750.071 516.858 772.792 537.961 788.39 559.372C813.957 594.47 840.637 631.539 849.927 674.839C860.599 724.575 846.93 775.952 830.204 823.097C814.581 867.135 792.75 914.484 750.285 936.838C714.77 955.532 672.092 952.546 633.871 943.244L632.055 942.796C601.54 935.18 571.058 923.448 546.652 902.898C522.245 882.346 504.45 851.863 504.797 819.477L504.819 818.199C505.466 791.416 517.477 768.311 533.465 747.219C549.613 725.914 570.308 706.092 587.717 686.705L591.798 682.144C612.373 659.041 635.209 631.619 646.77 603.957C650.611 594.754 651.832 584.46 653.261 573.728C654.665 563.181 656.273 552.208 661.188 542.578C669.675 525.945 679.952 515.66 691.341 510.564Z" stroke="white" stroke-width="6.03759" stroke-miterlimit="10"/>
</g>
</svg>
