<svg width="150" height="38" viewBox="0 0 150 38" fill="none" xmlns="http://www.w3.org/2000/svg">
<path d="M135.865 17.1012C135.772 17.2428 135.67 17.3785 135.56 17.5076C134.237 19.6402 132.916 21.6715 131.389 23.9055C131.389 24.0069 131.287 24.1087 131.287 24.2101C129.762 21.7729 128.337 19.437 126.913 17.1012C128.337 14.258 129.66 11.4143 131.084 8.47015L131.287 8.16513L131.389 8.36833C132.915 11.4152 134.339 14.157 135.763 16.9994C135.763 17.1008 135.763 17.1012 135.865 17.1012ZM148.48 32.8424C148.422 32.7896 148.385 32.7172 148.378 32.6392C144.512 24.8201 140.443 16.492 135.256 5.82888C135.053 5.42246 134.849 5.01619 134.646 4.61006C134.137 3.49305 133.628 2.17283 132.611 1.05582C132.395 0.764002 132.086 0.554575 131.734 0.462226C131.383 0.369876 131.01 0.400144 130.678 0.548016C130.215 0.761059 129.803 1.07067 129.469 1.45601C129.136 1.84135 128.889 2.2935 128.745 2.78203C128.745 2.88385 128.745 2.88385 128.643 2.98524C125.999 8.46931 123.455 13.953 120.81 19.437L117.961 25.3271C116.943 27.5615 115.926 29.6942 114.807 31.9282L114.197 33.2484C113.809 33.9258 113.7 34.7266 113.892 35.4828C113.995 35.7618 114.157 36.0151 114.368 36.2255C114.579 36.4358 114.833 36.5981 115.112 36.7012C115.411 36.9073 115.767 37.0139 116.129 37.0058C116.409 36.9748 116.682 36.9066 116.943 36.803C117.302 36.6347 117.623 36.3946 117.886 36.0976C118.148 35.8006 118.347 35.4531 118.469 35.0764C118.565 34.8185 118.703 34.578 118.876 34.3641L124.573 22.0762C124.675 22.1776 124.777 22.2794 124.777 22.3808C126.099 24.5134 127.421 26.4449 128.642 28.4741C128.948 28.9819 129.762 30.4035 131.286 30.4035C132.711 30.4035 133.626 29.0837 133.93 28.4741C135.151 26.4433 136.575 24.412 137.898 22.2794L138.101 22.0762L138.509 22.8886C140.441 26.9527 142.273 30.7085 144.205 34.5673C144.198 34.6225 144.204 34.6785 144.222 34.7312C144.239 34.7839 144.269 34.832 144.307 34.8719C144.417 35.2944 144.621 35.6869 144.902 36.0207C145.184 36.3546 145.537 36.6215 145.935 36.8018C146.243 36.9343 146.577 36.994 146.912 36.9764C147.247 36.9587 147.573 36.8641 147.866 36.7C148.178 36.549 148.456 36.3361 148.684 36.0743C148.911 35.8124 149.083 35.5071 149.188 35.177C149.245 34.7593 149.21 34.3344 149.087 33.9312C148.964 33.5281 148.755 33.1563 148.475 32.8411L148.48 32.8424Z" fill="black"/>
<path d="M93.1388 21.6715V4.71147H98.7339C100.87 4.81328 102.498 5.8289 102.803 7.35106C103.21 9.7887 102.294 11.2103 99.9544 12.1241C99.9144 12.1627 99.8662 12.1919 99.8134 12.2095C99.7606 12.2272 99.7045 12.2328 99.6493 12.2259C97.513 12.6319 97.2078 13.9521 97.3094 14.7645C97.3094 15.577 97.8181 16.999 100.158 17.1004H100.362C104.227 18.0146 106.77 20.655 107.077 24.2093C107.248 25.817 106.868 27.4352 106 28.8C105.132 30.1648 103.826 31.1957 102.296 31.7246C100.261 32.537 98.0229 32.4368 95.5802 32.3338C94.7693 32.249 93.9539 32.215 93.1388 32.2319V21.6715ZM104.939 13.953C105.143 13.7502 105.244 13.547 105.448 13.3438C106.394 12.1577 106.998 10.7368 107.195 9.23373C107.392 7.73067 107.175 6.20239 106.567 4.81328C105.346 1.96964 103.006 0.243434 99.9544 0.141622C98.2252 0.0402277 96.394 0.141622 94.6661 0.141622C93.6487 0.243434 92.5298 0.243435 91.4108 0.344829C90.2919 0.344829 88.4607 0.750824 88.4607 3.39167V33.553C88.4313 33.977 88.4883 34.4026 88.6282 34.8041C88.768 35.2055 88.9879 35.5745 89.2745 35.8888C89.57 36.1728 89.9218 36.3919 90.3072 36.5318C90.6927 36.6717 91.1032 36.7295 91.5124 36.7012H99.4474C101.269 36.705 103.067 36.2954 104.706 35.5033C106.346 34.7112 107.783 33.5573 108.91 32.129C110.037 30.7007 110.824 29.0353 111.212 27.2588C111.599 25.4822 111.577 23.641 111.146 21.8743C110.332 18.4214 108.4 15.781 104.941 13.953H104.939Z" fill="black"/>
<path d="M43.1891 33.6549V3.59451C43.1891 2.88224 43.2911 1.5637 42.0702 0.446274C41.7698 0.207859 41.4018 0.069787 41.0184 0.0515911C40.6351 0.0333952 40.2557 0.135996 39.9339 0.34488C39.3915 0.745107 38.9776 1.29434 38.7428 1.92551C38.5079 2.55669 38.4623 3.24247 38.6114 3.89911V28.5772L31.9989 20.7561L16.129 1.8683C16.0274 1.76649 15.9255 1.6651 15.9255 1.5637C15.5188 1.05589 14.3998 -0.467528 12.5678 0.141673C11.2453 0.649481 10.7366 1.76649 10.9402 3.39173C10.9578 3.49795 10.9921 3.60075 11.0418 3.69632C10.9402 12.0236 10.9402 20.3513 10.9402 28.5772V33.5531C10.9194 33.9956 10.9535 34.4391 11.0418 34.8733C11.1433 36.3967 12.1607 37.0059 13.1781 37.0059C13.7554 37.0098 14.3116 36.7895 14.7292 36.3916C15.1468 35.9936 15.3931 35.4492 15.4159 34.8733V8.46938C18.7736 12.5335 22.232 16.5935 25.5892 20.6559C29.6582 25.5304 33.8293 30.4048 37.8983 35.1783C38.0003 35.2797 38.0003 35.3811 38.1019 35.4829C38.8154 36.5999 39.6279 37.2091 40.6453 37.2091C41.0059 37.2029 41.3578 37.0975 41.6623 36.9045C43.4934 36.1922 43.2903 34.3655 43.1883 33.6549H43.1891Z" fill="black"/>
<path d="M5.14233 33.6549V3.39172C5.22653 2.96558 5.21545 2.52614 5.10989 2.10477C5.00433 1.68339 4.80689 1.29048 4.53166 0.954073C4.01118 0.543922 3.36338 0.328413 2.70048 0.344872C1.7851 0.446266 0.3623 0.854355 0.46261 3.49395V33.7571C0.361041 36.2961 1.88667 36.8039 2.70048 36.9053H2.90404C3.55135 36.9011 4.17163 36.6457 4.63365 36.1931C4.8924 35.8689 5.07287 35.4896 5.16109 35.0846C5.2493 34.6796 5.24289 34.2598 5.14233 33.8576V33.6549Z" fill="black"/>
<path d="M75.0587 4.51235C74.834 4.506 74.6093 4.52002 74.3871 4.55425C73.8873 4.65729 73.4283 4.9036 73.0665 5.26301C72.7047 5.62243 72.4557 6.07936 72.35 6.57786C72.2443 7.07637 72.2865 7.59483 72.4714 8.06976C72.6564 8.5447 72.976 8.9555 73.3912 9.25189C75.5108 10.743 77.0995 12.8694 77.927 15.3227C78.7545 17.776 78.7776 20.4286 77.9932 22.8959C77.2087 25.3632 75.6573 27.5169 73.5641 29.0448C71.4709 30.5726 68.9445 31.3951 66.3515 31.393C64.5175 31.4403 62.6997 31.0404 61.0556 30.2279L59.8565 29.586C60.1744 29.8622 60.4123 30.2186 60.5451 30.6179C60.678 31.0172 60.7011 31.4448 60.612 31.856C60.4784 32.5834 60.0654 33.2299 59.4611 33.6576C59.1676 33.9099 58.8168 34.0868 58.4393 34.173C58.0617 34.2591 57.6688 34.252 57.2946 34.152C57.7381 34.4262 58.1972 34.6744 58.6696 34.8953C61.0527 36.0821 63.6875 36.677 66.3502 36.6295C77.5618 36.5553 83.81 27.4663 83.81 19.217C83.7705 13.2909 81.128 7.95723 76.1319 4.78008C75.7993 4.61019 75.4322 4.51889 75.0587 4.51235Z" fill="black"/>
<path fill-rule="evenodd" clip-rule="evenodd" d="M56.5568 33.7155L56.5526 33.7126C56.5437 33.7087 56.535 33.7044 56.5266 33.6996V33.6954C56.3708 33.5953 56.2181 33.4859 56.0687 33.3774C55.7484 33.1432 55.4391 32.8939 55.1365 32.6362C54.1706 31.8075 53.2913 30.8833 52.5121 29.8776C51.4515 28.5189 50.5956 27.0126 49.9716 25.4067C49.2145 23.431 48.8323 21.3319 48.8447 19.2166C48.8598 13.3253 51.4993 7.97361 56.5232 4.77845C57.066 4.51814 57.6783 4.43897 58.2696 4.55262C58.3651 4.57119 58.4592 4.5964 58.5512 4.62803C58.7382 4.69102 58.918 4.7736 59.0876 4.87439C59.6152 5.18723 60.015 5.67611 60.2166 6.25471C60.4181 6.8333 60.4083 7.46437 60.1889 8.03646C60.0037 8.52122 59.6833 8.94287 59.2656 9.25151C57.6651 10.3811 56.3595 11.8775 55.4584 13.6151C54.5573 15.3528 54.087 17.2809 54.087 19.2375C54.087 21.1942 54.5573 23.1223 55.4584 24.86C56.3595 26.5976 57.6651 28.094 59.2656 29.2236C59.5267 29.4178 59.7489 29.6594 59.9203 29.9359C60.1297 30.26 60.2724 30.6225 60.34 31.0022C60.4137 31.4194 60.3726 31.8487 60.2212 32.2445C60.0181 32.7357 59.6868 33.1637 59.2618 33.4838C58.8949 33.7628 58.4553 33.9307 57.9955 33.9673C57.5013 34.0145 57.0035 33.9277 56.5547 33.7159L56.5568 33.7155ZM58.1802 5.10274C57.7157 5.01208 57.2345 5.06787 56.8032 5.26237C51.9526 8.35782 49.4188 13.5281 49.4042 19.2187C49.3928 21.2653 49.7628 23.2961 50.4954 25.2076C51.0988 26.7618 51.9263 28.2197 52.9515 29.5353C53.7074 30.5112 54.5605 31.4079 55.4979 32.2118C55.7887 32.4611 56.088 32.7007 56.3969 32.927C56.5375 33.0301 56.6798 33.1314 56.8267 33.2253L56.8313 33.2286C57.1805 33.3861 57.565 33.4496 57.9464 33.413C58.2982 33.3863 58.635 33.2598 58.9172 33.0485C59.2643 32.7891 59.5358 32.442 59.7037 32.0429C59.8189 31.7402 59.8498 31.412 59.7931 31.0931C59.7383 30.7868 59.6229 30.4945 59.4536 30.2333C59.3207 30.0184 59.1489 29.83 58.947 29.6778C57.2735 28.4969 55.9082 26.9324 54.9659 25.1157C54.0236 23.2989 53.5318 21.283 53.5318 19.2371C53.5318 17.1913 54.0236 15.1753 54.9659 13.3586C55.9082 11.5418 57.2735 9.97732 58.947 8.79649C59.2743 8.55063 59.5252 8.21724 59.6706 7.83493C59.8428 7.38554 59.8503 6.88985 59.6919 6.43544C59.5335 5.98103 59.2192 5.59714 58.8047 5.35162C58.6692 5.27091 58.5254 5.2049 58.3758 5.1547C58.3118 5.13303 58.2465 5.11568 58.1802 5.10274Z" fill="black"/>
<path d="M66.3233 0.167969C65.6521 0.167969 65.0083 0.434137 64.5336 0.907929C64.0589 1.38172 63.7922 2.02434 63.7921 2.69444V2.71162H63.7837V9.7233H63.7942C63.8063 10.3845 64.0779 11.0146 64.5505 11.4779C65.0232 11.9412 65.6592 12.2008 66.3217 12.2008C66.9841 12.2008 67.6201 11.9412 68.0928 11.4779C68.5655 11.0146 68.8371 10.3845 68.8491 9.7233H68.8596V2.71162H68.8512V2.69444C68.8511 2.02434 68.5844 1.38172 68.1097 0.907929C67.635 0.434137 66.9912 0.167969 66.32 0.167969H66.3233Z" fill="black"/>
</svg>
