<?xml version="1.0" encoding="UTF-8" standalone="no"?>
<svg
   width="50"
   height="53"
   viewBox="0 0 50 53"
   fill="none"
   version="1.1"
   id="svg3"
   sodipodi:docname="logo.svg"
   inkscape:version="1.4.2 (f4327f4, 2025-05-13)"
   xmlns:inkscape="http://www.inkscape.org/namespaces/inkscape"
   xmlns:sodipodi="http://sodipodi.sourceforge.net/DTD/sodipodi-0.dtd"
   xmlns="http://www.w3.org/2000/svg"
   xmlns:svg="http://www.w3.org/2000/svg">
  <defs
     id="defs3" />
  <sodipodi:namedview
     id="namedview3"
     pagecolor="#505050"
     bordercolor="#eeeeee"
     borderopacity="1"
     inkscape:showpageshadow="0"
     inkscape:pageopacity="0"
     inkscape:pagecheckerboard="0"
     inkscape:deskcolor="#505050"
     inkscape:zoom="7.6132076"
     inkscape:cx="21.410161"
     inkscape:cy="33.428748"
     inkscape:window-width="1920"
     inkscape:window-height="1009"
     inkscape:window-x="-8"
     inkscape:window-y="-8"
     inkscape:window-maximized="1"
     inkscape:current-layer="svg3" />
  <path
     d="M37.4853 6.22351C37.1678 6.21318 36.8461 6.23705 36.524 6.28469C36.3464 6.31683 34.5022 6.69475 33.7699 8.64185C33.0516 10.5514 34.0754 12.2903 35.0995 13.0134C39.3733 16.0314 42.4947 21.201 42.4979 27.2889C42.4979 37.3021 34.2758 44.726 25.032 44.7309C22.3409 44.6954 20.0017 44.3557 17.4592 43.0616L15.7439 42.1422C16.5489 42.7107 17.0337 43.9534 16.8267 45.3944C16.7048 46.2427 16.227 47.1424 15.1808 47.9758C14.3489 48.6385 13.2532 49.0215 12.0828 48.6837C12.6566 49.0538 13.3942 49.4336 14.0489 49.7489C17.1533 51.2439 20.373 52.233 25.032 52.233C41.0655 52.1268 50 39.1065 50 27.2889C49.9438 18.7996 46.1648 11.1594 39.0201 6.60784C38.532 6.3528 38.0145 6.2407 37.4853 6.22351Z"
     fill="#F0531C"
     id="path1"
     style="fill:#28a7e0;fill-opacity:1" />
  <path
     fill-rule="evenodd"
     clip-rule="evenodd"
     d="M11.0266 48.0576C11.0262 48.0577 11.0257 48.0578 11.0252 48.0578C11.0248 48.0578 11.0245 48.0577 11.0241 48.0575C11.022 48.0562 11.0201 48.0545 11.018 48.0532C11.0062 48.0474 10.9918 48.0415 10.9807 48.0344C10.9801 48.034 10.9798 48.0334 10.9798 48.0327V48.0266C10.7568 47.8833 10.5382 47.728 10.3247 47.5713C9.86682 47.2353 9.42255 46.8787 8.99152 46.5091C7.61412 45.3279 6.34911 43.9921 5.2387 42.5576C3.72995 40.6085 2.49677 38.4582 1.61171 36.1563C0.51919 33.3147 -0.00771688 30.332 8.53733e-05 27.2888C0.021729 18.8499 3.79611 11.1833 10.981 6.60603C11.7626 6.19767 12.6203 6.15569 13.4785 6.2826C13.6129 6.30693 13.752 6.34734 13.881 6.39074C14.1476 6.48037 14.4065 6.59957 14.6482 6.74333C15.39 7.18457 15.9299 7.83205 16.2342 8.64105C16.5584 9.50302 16.5534 10.4147 16.2227 11.2732C15.9647 11.9431 15.4937 12.5985 14.9038 13.015C13.4136 14.0673 12.0958 15.3485 11.0016 16.8083C8.73538 19.8319 7.50729 23.5069 7.50628 27.2888C7.50523 31.2595 8.85191 35.1445 11.3267 38.2514C12.35 39.536 13.5622 40.6783 14.9036 41.6255C15.2733 41.8865 15.5973 42.264 15.8398 42.6436C16.1349 43.1057 16.348 43.6294 16.4397 44.1709C16.5417 44.7728 16.4893 45.3797 16.27 45.9508C15.9954 46.6661 15.4915 47.2529 14.8975 47.7261C14.386 48.1335 13.7337 48.3575 13.087 48.4183C12.3847 48.4844 11.6635 48.363 11.0266 48.0576ZM13.3479 7.06951C12.6784 6.97208 11.9927 6.98787 11.3788 7.29824C4.44205 11.7324 0.818516 19.1386 0.797614 27.2909C0.790067 30.2322 1.29993 33.1231 2.35611 35.8701C3.21283 38.0984 4.40882 40.1827 5.86937 42.0695C6.94873 43.4639 8.17204 44.7558 9.5107 45.9038C9.92678 46.2606 10.3546 46.6041 10.7965 46.9284C10.9976 47.076 11.2012 47.2209 11.411 47.3558C11.4134 47.3573 11.4157 47.3588 11.418 47.3603C11.913 47.5871 12.4711 47.6754 13.0123 47.6244C13.5032 47.5782 14.0116 47.4123 14.4007 47.1024C14.8806 46.7201 15.3032 46.2442 15.5256 45.665C15.6933 45.2283 15.7315 44.7644 15.6535 44.3041C15.5796 43.868 15.4054 43.4449 15.1678 43.0729C14.9814 42.7811 14.728 42.4778 14.4437 42.277C13.0399 41.2857 11.7737 40.0925 10.703 38.7483C8.11578 35.5003 6.70776 31.4398 6.70887 27.2886C6.70992 23.336 7.99322 19.4925 10.3636 16.3301C11.5072 14.8043 12.8863 13.4635 14.4439 12.3636C14.9042 12.0385 15.2773 11.5092 15.4786 10.9866C15.739 10.3104 15.743 9.60032 15.4878 8.92185C15.2476 8.28307 14.8274 7.77779 14.2406 7.42878C14.047 7.31366 13.8404 7.21845 13.627 7.14668C13.5366 7.11633 13.4419 7.08741 13.3479 7.06951Z"
     fill="#F0531C"
     id="path2"
     style="fill:#28a7e0;fill-opacity:1" />
  <path
     d="M24.9931 2.65107e-10C22.9941 3.19113e-05 21.3737 1.62047 21.3737 3.61941C21.3742 3.62754 21.3748 3.6357 21.3755 3.64384H21.3639V13.6886H21.3785C21.4145 15.6598 23.0215 17.2396 24.9931 17.242C26.9647 17.2398 28.5719 15.6599 28.6079 13.6886H28.6228V3.64384H28.6109C28.6116 3.6357 28.6122 3.62754 28.6127 3.61941C28.6127 1.62044 26.9922 -2.3933e-05 24.9932 2.65107e-10H24.993H24.9931Z"
     fill="#28A7E0"
     id="path3" />
</svg>
